<svg width="626" height="606" viewBox="0 0 626 606" fill="none" xmlns="http://www.w3.org/2000/svg">
<path d="M72.8096 122.421C94.6933 159.24 141.542 171.764 141.542 171.764C141.542 171.764 152.931 124.627 131.048 87.8071C109.164 50.9876 62.3151 38.4636 62.3151 38.4636C62.3151 38.4636 50.926 85.6014 72.8096 122.421Z" fill="#C3BEFF"/>
<path d="M141.59 171.736L62.3631 38.4351" stroke="white" stroke-width="0.474317" stroke-miterlimit="10"/>
<path d="M90.5257 85.8179L65.7158 81.2769" stroke="white" stroke-width="0.474317" stroke-miterlimit="10"/>
<path d="M103.88 107.698L106.673 66.3918" stroke="white" stroke-width="0.474317" stroke-miterlimit="10"/>
<path d="M111.169 120.551L74.277 113.361" stroke="white" stroke-width="0.474317" stroke-miterlimit="10"/>
<path d="M121.591 137.496L132.802 102.067" stroke="white" stroke-width="0.474317" stroke-miterlimit="10"/>
<path d="M130.369 152.266L102.922 148.592" stroke="white" stroke-width="0.474317" stroke-miterlimit="10"/>
<path d="M81.0447 182.283C104.716 189.843 129.855 177.222 129.855 177.222C129.855 177.222 116.681 152.368 93.0586 144.778C69.4363 137.189 44.2482 149.839 44.2482 149.839C44.2482 149.839 57.3734 174.832 81.0447 182.283Z" fill="#C3BEFF"/>
<path d="M129.894 177.287L44.2384 149.932" stroke="white" stroke-width="0.474317" stroke-miterlimit="10"/>
<path d="M74.6904 159.658L62.1784 167.225" stroke="white" stroke-width="0.474317" stroke-miterlimit="10"/>
<path d="M88.9062 164.016L74.2263 145.025" stroke="white" stroke-width="0.474317" stroke-miterlimit="10"/>
<path d="M97.0048 166.777L78.2427 177.862" stroke="white" stroke-width="0.474317" stroke-miterlimit="10"/>
<path d="M108.057 170.125L99.2931 150.443" stroke="white" stroke-width="0.474317" stroke-miterlimit="10"/>
<path d="M117.543 173.156L104.222 182.124" stroke="white" stroke-width="0.474317" stroke-miterlimit="10"/>
<path d="M141.739 115.189C135.952 139.338 150.417 163.491 150.417 163.491C150.417 163.491 174.227 148.486 179.988 124.33C185.75 100.174 171.34 76.0758 171.34 76.0758C171.34 76.0758 147.501 91.0325 141.739 115.189Z" fill="#C3BEFF"/>
<path d="M150.417 163.491L171.312 76.027" stroke="white" stroke-width="0.474317" stroke-miterlimit="10"/>
<path d="M163.884 107.105L155.407 95.1992" stroke="white" stroke-width="0.474317" stroke-miterlimit="10"/>
<path d="M160.593 121.605L178.446 105.565" stroke="white" stroke-width="0.474317" stroke-miterlimit="10"/>
<path d="M158.429 129.897L145.997 112.001" stroke="white" stroke-width="0.474317" stroke-miterlimit="10"/>
<path d="M155.932 141.167L174.9 130.944" stroke="white" stroke-width="0.474317" stroke-miterlimit="10"/>
<path d="M153.616 150.862L143.686 138.244" stroke="white" stroke-width="0.474317" stroke-miterlimit="10"/>
<path d="M565.466 263.676C552.663 304.55 509.965 327.54 509.965 327.54C509.965 327.54 488.012 284.3 500.815 243.426C513.618 202.552 556.316 179.562 556.316 179.562C556.316 179.562 578.269 222.803 565.466 263.676Z" fill="#C3BEFF"/>
<path d="M509.911 327.523L556.261 179.545" stroke="white" stroke-width="0.474317" stroke-miterlimit="10"/>
<path d="M539.786 232.146L562.88 222.005" stroke="white" stroke-width="0.474317" stroke-miterlimit="10"/>
<path d="M531.837 256.515L519.594 216.966" stroke="white" stroke-width="0.474317" stroke-miterlimit="10"/>
<path d="M527.708 270.703L561.948 255.199" stroke="white" stroke-width="0.474317" stroke-miterlimit="10"/>
<path d="M521.475 289.595L502.396 257.706" stroke="white" stroke-width="0.474317" stroke-miterlimit="10"/>
<path d="M516.34 305.991L542.199 296.086" stroke="white" stroke-width="0.474317" stroke-miterlimit="10"/>
<path d="M571.257 323.824C549.968 336.639 522.595 330.156 522.595 330.156C522.595 330.156 529.683 302.933 550.918 290.101C572.153 277.268 599.58 283.768 599.58 283.768C599.58 283.768 592.572 311.115 571.257 323.824Z" fill="#C3BEFF"/>
<path d="M522.572 330.228L599.61 283.857" stroke="white" stroke-width="0.474317" stroke-miterlimit="10"/>
<path d="M572.223 300.343L586.143 304.821" stroke="white" stroke-width="0.474317" stroke-miterlimit="10"/>
<path d="M559.395 307.862L569.3 285.999" stroke="white" stroke-width="0.474317" stroke-miterlimit="10"/>
<path d="M552.152 312.416L572.965 318.876" stroke="white" stroke-width="0.474317" stroke-miterlimit="10"/>
<path d="M542.168 318.222L546.158 297.049" stroke="white" stroke-width="0.474317" stroke-miterlimit="10"/>
<path d="M533.637 323.36L548.668 329.014" stroke="white" stroke-width="0.474317" stroke-miterlimit="10"/>
<path d="M496.727 272.535C507.927 294.698 499.422 321.536 499.422 321.536C499.422 321.536 472.794 312.426 461.617 290.25C450.44 268.074 458.904 241.302 458.904 241.302C458.904 241.302 485.55 250.358 496.727 272.535Z" fill="#C3BEFF"/>
<path d="M499.421 321.536L458.92 241.248" stroke="white" stroke-width="0.474317" stroke-miterlimit="10"/>
<path d="M473.314 269.776L478.817 256.236" stroke="white" stroke-width="0.474317" stroke-miterlimit="10"/>
<path d="M479.861 283.127L458.789 271.636" stroke="white" stroke-width="0.474317" stroke-miterlimit="10"/>
<path d="M483.879 290.696L491.848 270.415" stroke="white" stroke-width="0.474317" stroke-miterlimit="10"/>
<path d="M488.906 301.086L468.092 295.513" stroke="white" stroke-width="0.474317" stroke-miterlimit="10"/>
<path d="M493.396 309.986L500.148 295.417" stroke="white" stroke-width="0.474317" stroke-miterlimit="10"/>
<path opacity="0.1" d="M331.067 605.78C455.637 605.78 556.621 596.157 556.621 584.287C556.621 572.416 455.637 562.793 331.067 562.793C206.497 562.793 105.513 572.416 105.513 584.287C105.513 596.157 206.497 605.78 331.067 605.78Z" fill="#4A3AFF"/>
<rect x="119.194" y="54.3359" width="407.715" height="349.559" rx="14.9027" fill="white"/>
<rect x="137.863" y="100.909" width="172.328" height="172.328" rx="14.4846" fill="#EFF0F7"/>
<path d="M119.194 68.8206C119.194 60.8209 125.679 54.3359 133.679 54.3359H512.425C520.424 54.3359 526.909 60.8209 526.909 68.8206V87.0296H119.194V68.8206Z" fill="#4A3AFF"/>
<circle cx="137.887" cy="68.6964" r="5.04308" fill="white"/>
<circle cx="153.016" cy="68.6964" r="5.04308" fill="white"/>
<circle cx="168.145" cy="68.6964" r="5.04308" fill="white"/>
<rect x="148.192" y="111.212" width="151.672" height="151.697" rx="14.9027" fill="white"/>
<rect opacity="0.2" x="162.57" y="131.146" width="37.6093" height="6.76568" rx="3.38284" fill="#4A3AFF"/>
<line x1="164.703" y1="167.747" x2="277.305" y2="167.747" stroke="#EFF0F7" stroke-width="0.614775"/>
<line x1="164.703" y1="184.622" x2="277.305" y2="184.622" stroke="#EFF0F7" stroke-width="0.614775"/>
<line x1="164.703" y1="201.498" x2="277.305" y2="201.498" stroke="#EFF0F7" stroke-width="0.614775"/>
<line x1="164.703" y1="218.373" x2="277.305" y2="218.373" stroke="#EFF0F7" stroke-width="0.614775"/>
<line x1="164.703" y1="236.684" x2="277.305" y2="236.684" stroke="#EFF0F7" stroke-width="0.614775"/>
<circle opacity="0.2" cx="346.223" cy="118.978" r="17.9508" fill="#4A3AFF"/>
<rect opacity="0.3" x="428.236" y="102.463" width="7.18034" height="58.316" rx="3.59017" transform="rotate(90 428.236 102.463)" fill="#7A6EFF"/>
<rect x="508.24" y="115.388" width="7.18034" height="138.32" rx="3.59017" transform="rotate(90 508.24 115.388)" fill="#EFF0F7"/>
<rect x="508.24" y="128.313" width="7.18034" height="138.32" rx="3.59017" transform="rotate(90 508.24 128.313)" fill="#EFF0F7"/>
<circle opacity="0.2" cx="346.226" cy="177.857" r="17.9508" fill="#4A3AFF"/>
<rect opacity="0.3" x="428.236" y="161.342" width="7.18034" height="58.316" rx="3.59017" transform="rotate(90 428.236 161.342)" fill="#7A6EFF"/>
<rect x="508.24" y="174.266" width="7.18034" height="138.32" rx="3.59017" transform="rotate(90 508.24 174.266)" fill="#EFF0F7"/>
<rect x="508.24" y="187.191" width="7.18034" height="138.32" rx="3.59017" transform="rotate(90 508.24 187.191)" fill="#EFF0F7"/>
<circle opacity="0.2" cx="346.226" cy="236.736" r="17.9508" fill="#4A3AFF"/>
<rect opacity="0.3" x="428.236" y="220.221" width="7.18034" height="58.316" rx="3.59017" transform="rotate(90 428.236 220.221)" fill="#7A6EFF"/>
<rect x="508.24" y="233.145" width="7.18034" height="138.32" rx="3.59017" transform="rotate(90 508.24 233.145)" fill="#EFF0F7"/>
<rect x="508.24" y="246.07" width="7.18034" height="138.32" rx="3.59017" transform="rotate(90 508.24 246.07)" fill="#EFF0F7"/>
<rect x="137.863" y="291.906" width="370.378" height="93.3203" rx="10.9612" fill="#EFF0F7"/>
<rect x="148.621" y="302.657" width="348.862" height="71.8182" rx="11.2545" fill="white"/>
<path d="M272.16 360.165L272.365 360.629L272.854 360.493L298.927 353.236L298.989 353.219L299.046 353.188L324.925 339.354L350.872 346.169L351.092 346.227L351.293 346.122L377.66 332.336L403.225 332.281L428.301 346.321L428.303 346.323L428.547 346.46L428.825 346.618L429.109 346.47L453.917 333.48L454.559 333.144L454.098 332.586L453.615 332.001L453.312 331.634L452.89 331.855L428.863 344.433L404.06 330.548L404.06 330.548L404.055 330.545L403.941 330.483L403.809 330.41L403.657 330.41L377.251 330.466L377.107 330.466L376.98 330.533L350.819 344.21L324.869 337.387L324.646 337.329L324.443 337.437L298.198 351.482L272.249 358.708L271.595 358.89L271.87 359.511L272.16 360.165Z" fill="#962DFF" stroke="#962DFF" stroke-width="1.17442"/>
<path d="M428.066 353.006C428.326 353.146 428.649 353.071 428.822 352.831L454.306 317.334C454.409 317.19 454.442 317.008 454.396 316.838C454.35 316.668 454.23 316.527 454.069 316.455L453.305 316.114C453.05 316.001 452.751 316.082 452.589 316.308L427.879 350.725L403.279 337.479C403.193 337.433 403.097 337.409 403 337.409H376.747L350.468 323.658C350.385 323.615 350.293 323.592 350.2 323.591L323.96 323.403C323.825 323.402 323.694 323.448 323.588 323.533L297.58 344.401H272.223C271.898 344.401 271.635 344.664 271.635 344.989V345.684C271.635 346.009 271.898 346.272 272.223 346.272H298.155C298.289 346.272 298.418 346.226 298.523 346.142L324.521 325.282L349.777 325.46L376.067 339.212C376.151 339.256 376.244 339.279 376.339 339.279H402.589L428.066 353.006Z" fill="#4A3AFF" stroke="#4A3AFF" stroke-width="1.17442" stroke-linejoin="round"/>
<rect opacity="0.2" x="167.979" y="317.917" width="37.6093" height="6.76568" rx="3.38284" fill="#4A3AFF"/>
<rect x="167.979" y="333.299" width="10.0858" height="10.0858" rx="5.04291" fill="#4A3AFF"/>
<rect x="243.049" y="334.752" width="7.18034" height="60.9174" rx="3.59017" transform="rotate(90 243.049 334.752)" fill="#EFF0F7"/>
<rect x="167.979" y="349.129" width="10.0858" height="10.0858" rx="5.04291" fill="#962DFF"/>
<rect x="243.048" y="350.582" width="7.18034" height="60.9174" rx="3.59017" transform="rotate(90 243.048 350.582)" fill="#EFF0F7"/>
<path d="M511.232 577.563C513.346 574.805 516.326 570.798 519.649 565.865C520.635 564.435 521.662 562.905 522.649 561.334C519.991 559.455 517.629 557.188 515.642 554.609C514.878 553.411 514.381 552.063 514.187 550.655C513.992 549.248 514.104 547.815 514.514 546.455C514.979 545.317 515.875 544.409 517.007 543.93C518.139 543.451 519.414 543.439 520.555 543.898L520.998 544.099C524.42 546.112 525.025 553.16 524.32 556.623C524.32 556.844 523.434 559.401 522.971 560.65L524.803 557.75C525.709 556.301 526.615 554.75 527.501 553.26L528.79 550.864C529.253 550.059 529.595 549.233 529.998 548.388C530.582 547.18 531.105 545.871 531.649 544.602C528.888 543.209 526.355 541.403 524.139 539.246C523.198 538.176 522.5 536.914 522.093 535.548C521.686 534.182 521.581 532.744 521.783 531.333C522.083 530.122 522.851 529.079 523.92 528.433C524.988 527.788 526.269 527.592 527.481 527.89L527.823 527.991C531.528 529.421 533.219 536.347 533.018 539.891C533.018 539.891 532.897 540.736 532.756 541.622C533.24 540.354 533.723 539.085 534.166 537.777C535.434 534.072 536.602 530.246 537.81 526.421C538.052 525.635 538.314 524.85 538.555 524.045C535.721 522.612 533.115 520.766 530.823 518.568C529.883 517.501 529.185 516.243 528.778 514.88C528.372 513.518 528.266 512.083 528.468 510.675C528.612 510.077 528.872 509.513 529.235 509.015C529.598 508.518 530.055 508.097 530.581 507.777C531.107 507.457 531.69 507.245 532.299 507.151C532.907 507.057 533.528 507.085 534.126 507.232L534.508 507.333C538.213 508.742 539.904 515.689 539.703 519.212C539.703 519.333 539.562 520.219 539.381 521.226C540.065 519.212 540.77 517.199 541.535 515.185C542.818 511.732 544.331 508.368 546.066 505.118C543.111 503.666 540.395 501.772 538.012 499.5C537.071 498.433 536.373 497.175 535.967 495.812C535.56 494.45 535.454 493.015 535.656 491.607C535.8 491.009 536.061 490.445 536.423 489.948C536.786 489.45 537.243 489.03 537.769 488.71C538.295 488.39 538.879 488.177 539.487 488.083C540.095 487.99 540.716 488.017 541.314 488.164H541.696C545.401 489.594 547.092 496.52 546.891 500.044C546.891 500.306 546.347 503.487 546.106 504.635V504.514C547.882 501.351 549.944 498.359 552.267 495.574C554.311 493.063 556.503 490.676 558.831 488.426C560.985 486.412 563.059 484.52 564.871 482.949C565.878 482.104 566.825 481.338 567.711 480.654C567.711 480.654 569.885 476.385 570.066 476.144C572.08 473.224 577.657 468.794 581.443 469.922C582.039 470.117 582.59 470.429 583.064 470.84C583.538 471.251 583.925 471.753 584.203 472.315C584.48 472.878 584.643 473.491 584.681 474.117C584.718 474.743 584.631 475.371 584.423 475.962L584.241 476.405C583.544 477.645 582.584 478.718 581.43 479.549C580.275 480.38 578.954 480.95 577.557 481.218C574.38 481.567 571.168 481.432 568.033 480.815C567.106 481.54 566.16 482.345 565.113 483.251C563.281 484.862 561.247 486.714 559.073 488.849C558.509 489.433 557.925 490.057 557.361 490.681C558.312 489.958 559.3 489.286 560.321 488.668C563.442 487.017 570.389 485.647 573.288 488.406C573.724 488.838 574.07 489.353 574.306 489.919C574.542 490.486 574.663 491.094 574.663 491.708C574.663 492.322 574.542 492.93 574.306 493.497C574.07 494.063 573.724 494.578 573.288 495.01C573.17 495.135 573.042 495.249 572.905 495.352C571.714 496.13 570.367 496.639 568.959 496.845C567.551 497.05 566.115 496.946 564.751 496.54C561.758 495.374 558.961 493.758 556.455 491.748C555.207 493.117 553.979 494.547 552.77 496.118C550.535 498.918 548.56 501.917 546.871 505.077C546.826 505.282 546.737 505.475 546.609 505.641C547.113 505.138 550.113 502.561 550.334 502.4C553.254 500.386 560.079 498.272 563.2 500.708C564.157 501.492 564.765 502.622 564.889 503.853C565.014 505.083 564.646 506.313 563.865 507.272L563.502 507.675C562.388 508.578 561.09 509.226 559.698 509.574C558.307 509.922 556.856 509.961 555.448 509.688C552.258 508.838 549.226 507.478 546.468 505.661C544.875 508.851 543.49 512.139 542.32 515.507C541.435 518.004 540.649 520.561 539.864 523.139C540.549 522.494 543.327 520.098 543.549 519.957C546.468 517.944 553.274 515.83 556.415 518.246C557.372 519.039 557.976 520.178 558.097 521.415C558.217 522.652 557.845 523.887 557.059 524.85L556.717 525.212C555.605 526.119 554.307 526.77 552.914 527.118C551.522 527.466 550.071 527.503 548.663 527.226C545.501 526.379 542.486 525.055 539.723 523.3L538.696 526.803C537.589 530.649 536.481 534.495 535.293 538.26C534.871 539.569 534.407 540.837 533.964 542.126C535.011 541.179 536.944 539.528 537.126 539.387C540.045 537.374 546.851 535.36 549.992 537.696C550.95 538.499 551.551 539.649 551.664 540.894C551.777 542.139 551.393 543.378 550.596 544.341L550.294 544.663C549.182 545.569 547.883 546.22 546.491 546.568C545.099 546.916 543.648 546.953 542.24 546.676C539.185 545.871 536.271 544.601 533.602 542.911C532.837 544.924 532.031 547.119 531.146 549.133C530.743 549.978 530.38 550.884 529.937 551.69L528.689 554.126C527.783 555.757 526.937 557.267 526.051 558.757C525.608 559.522 525.165 560.227 524.743 560.972C525.649 559.865 527.139 558.133 527.28 557.992C529.877 555.576 536.28 552.435 539.743 554.368C540.271 554.681 540.731 555.095 541.099 555.587C541.466 556.078 541.734 556.637 541.885 557.231C542.036 557.826 542.069 558.445 541.982 559.052C541.894 559.659 541.688 560.243 541.374 560.771C541.374 560.912 541.193 561.053 541.092 561.193C540.144 562.256 538.976 563.099 537.668 563.662C536.36 564.226 534.945 564.496 533.521 564.455C530.286 564.086 527.124 563.238 524.139 561.938C523.051 563.73 521.984 565.462 520.957 567.053C517.675 572.127 514.776 576.214 512.702 579.134C510.628 582.053 509.36 583.563 509.36 583.563C509.253 583.723 509.113 583.858 508.949 583.96C508.786 584.061 508.603 584.126 508.412 584.151C508.222 584.176 508.028 584.16 507.844 584.103C507.66 584.047 507.49 583.952 507.346 583.825C507.195 583.711 507.069 583.567 506.975 583.403C506.881 583.239 506.82 583.058 506.798 582.87C506.775 582.682 506.791 582.491 506.844 582.309C506.896 582.128 506.985 581.958 507.104 581.812C508.677 580.6 510.067 579.17 511.232 577.563Z" fill="#7A6EFF"/>
<path d="M556.877 490.863C556.877 490.863 551.762 486.131 550.574 483.272C549.954 481.993 549.617 480.595 549.585 479.174C549.554 477.753 549.83 476.342 550.393 475.037C550.989 473.945 551.994 473.134 553.187 472.783C554.38 472.432 555.664 472.569 556.756 473.164L557.179 473.426C560.38 475.761 560.179 482.909 559.051 486.252C558.951 486.554 556.917 490.903 556.877 490.863Z" fill="#7A6EFF"/>
<path d="M505.715 579.456C504.769 577.08 503.379 573.697 501.527 569.731C501.004 568.583 500.42 567.375 499.816 566.127C497.629 567.098 495.307 567.729 492.929 567.999C491.883 568.029 490.843 567.832 489.88 567.422C488.918 567.012 488.055 566.398 487.352 565.623C486.803 564.893 486.565 563.975 486.689 563.07C486.814 562.165 487.291 561.346 488.017 560.791L488.339 560.589C490.876 559.18 495.587 561.475 497.5 563.227C497.621 563.348 498.909 564.838 499.514 565.623C499.131 564.878 498.769 564.133 498.366 563.368C497.802 562.261 497.178 561.113 496.554 559.985C496.232 559.402 495.889 558.838 495.547 558.254C495.205 557.67 494.822 557.126 494.44 556.562C494.057 555.999 493.272 554.911 492.668 554.086C490.749 555.294 488.658 556.204 486.466 556.784C485.435 556.975 484.375 556.939 483.36 556.678C482.344 556.417 481.398 555.938 480.587 555.274C480.267 554.954 480.012 554.574 479.839 554.156C479.666 553.738 479.577 553.29 479.577 552.838C479.577 552.385 479.666 551.937 479.839 551.519C480.012 551.101 480.267 550.721 480.587 550.401L480.768 550.139C483.063 548.347 488.077 549.898 490.211 551.368L491.198 552.193C490.594 551.415 489.97 550.629 489.325 549.837C487.453 547.643 485.5 545.448 483.547 543.253L482.338 541.884C480.364 543.134 478.212 544.077 475.956 544.683C474.928 544.874 473.871 544.837 472.859 544.576C471.847 544.315 470.904 543.836 470.096 543.173C469.776 542.853 469.522 542.473 469.349 542.055C469.176 541.637 469.086 541.189 469.086 540.736C469.086 540.284 469.176 539.836 469.349 539.418C469.522 539 469.776 538.62 470.096 538.3L470.358 538.059C472.654 536.267 477.667 537.817 479.822 539.267L480.949 540.233C479.902 539.025 478.936 537.817 477.909 536.569C476.2 534.455 474.646 532.221 473.258 529.884C471.227 531.196 469.006 532.188 466.674 532.823C465.646 533.014 464.589 532.978 463.577 532.717C462.565 532.456 461.622 531.977 460.814 531.313C460.172 530.665 459.812 529.789 459.812 528.877C459.812 527.965 460.172 527.089 460.814 526.441L461.076 526.199C463.351 524.407 468.365 525.957 470.519 527.407C470.68 527.528 472.533 529.078 473.117 529.642C471.805 527.328 470.7 524.902 469.815 522.394C469.013 520.152 468.34 517.866 467.801 515.548C467.278 513.393 466.935 511.4 466.653 509.628C466.492 508.662 466.392 507.796 466.271 506.97C466.271 506.97 464.418 503.99 464.257 503.789C463.17 501.413 462.485 496.218 464.64 494.265C465.325 493.672 466.218 493.373 467.122 493.433C468.027 493.493 468.871 493.908 469.472 494.587L469.714 494.909C470.231 495.819 470.544 496.831 470.631 497.874C470.718 498.917 470.577 499.967 470.217 500.95C469.239 503.085 467.935 505.055 466.351 506.789C466.472 507.655 466.613 508.561 466.794 509.547C467.116 511.319 467.499 513.293 468.083 515.427C468.224 515.991 468.405 516.595 468.566 517.179C468.566 516.132 468.405 514.682 468.425 514.541C468.566 511.964 470.439 507.031 473.157 506.286C474.038 506.073 474.967 506.219 475.741 506.691C476.515 507.163 477.07 507.922 477.285 508.803C477.294 508.937 477.294 509.071 477.285 509.205C477.323 510.25 477.131 511.291 476.724 512.255C476.317 513.218 475.705 514.081 474.929 514.783C473.103 516.226 471.065 517.381 468.888 518.206C469.271 519.494 469.714 520.823 470.237 522.233C471.161 524.7 472.307 527.079 473.66 529.34L473.922 529.723C473.781 529.219 473.298 526.36 473.278 526.139C473.137 523.561 474.365 518.447 477.083 517.4C477.93 517.088 478.865 517.125 479.685 517.502C480.504 517.88 481.14 518.567 481.453 519.414C481.505 519.537 481.545 519.665 481.573 519.796C481.733 520.829 481.663 521.885 481.367 522.887C481.071 523.89 480.557 524.814 479.862 525.595C478.117 527.26 476.136 528.658 473.982 529.743C475.384 531.963 476.931 534.089 478.613 536.105C479.842 537.595 481.171 539.065 482.5 540.535C482.338 539.851 481.875 537.193 481.875 536.991C481.714 534.414 482.963 529.3 485.681 528.253C486.527 527.941 487.463 527.977 488.282 528.355C489.102 528.733 489.738 529.42 490.05 530.266C490.102 530.39 490.143 530.518 490.171 530.649C490.331 531.682 490.26 532.737 489.965 533.74C489.669 534.743 489.155 535.667 488.459 536.448C486.726 538.117 484.751 539.515 482.6 540.596L484.433 542.609C486.446 544.763 488.459 546.918 490.352 549.092C491.017 549.858 491.641 550.623 492.366 551.388C492.164 550.381 491.862 548.529 491.842 548.368C491.701 545.77 492.929 540.676 495.648 539.629C496.494 539.317 497.43 539.354 498.249 539.731C499.068 540.109 499.704 540.796 500.017 541.643C500.073 541.765 500.113 541.893 500.138 542.025C500.298 543.058 500.227 544.114 499.931 545.116C499.635 546.119 499.122 547.043 498.426 547.824C496.768 549.451 494.866 550.81 492.788 551.851C493.835 553.14 494.802 554.428 495.768 555.757C496.151 556.341 496.594 556.905 496.936 557.489C497.279 558.073 497.641 558.636 497.983 559.2C498.668 560.388 499.312 561.496 499.997 562.603C500.299 563.187 500.581 563.73 500.883 564.274C500.54 563.288 499.997 561.697 499.977 561.536C499.433 558.999 499.876 553.784 502.413 552.334C502.831 552.155 503.279 552.061 503.734 552.056C504.188 552.052 504.638 552.137 505.06 552.307C505.481 552.478 505.864 552.729 506.187 553.049C506.511 553.368 506.768 553.748 506.943 554.166C507.261 555.172 507.352 556.235 507.209 557.279C507.066 558.324 506.694 559.324 506.118 560.207C504.665 562.1 502.942 563.769 501.004 565.16C501.708 566.509 502.393 567.838 503.017 569.187C505.031 573.214 506.46 576.536 507.467 578.932C508.474 581.328 508.977 582.718 508.977 582.718C509.062 582.974 509.044 583.254 508.928 583.498C508.812 583.742 508.606 583.931 508.353 584.026C508.225 584.071 508.089 584.089 507.953 584.081C507.818 584.072 507.686 584.037 507.564 583.977C507.442 583.917 507.334 583.834 507.245 583.732C507.155 583.63 507.087 583.511 507.044 583.382C506.679 582.048 506.235 580.737 505.715 579.456Z" fill="#7A6EFF"/>
<path d="M468.365 517.924C466.042 518.638 463.627 519.004 461.197 519.011C460.157 518.918 459.149 518.602 458.242 518.084C457.335 517.566 456.551 516.859 455.942 516.011C455.478 515.226 455.345 514.289 455.571 513.405C455.798 512.522 456.365 511.765 457.15 511.299L457.492 511.118C460.19 509.991 464.6 512.83 466.291 514.803C466.432 514.944 468.405 517.924 468.365 517.924Z" fill="#7A6EFF"/>
<path d="M508.534 576.658C508.977 573.214 509.541 568.261 509.923 562.301C510.044 560.59 510.145 558.778 510.225 556.905C506.988 556.609 503.813 555.836 500.802 554.61C499.534 553.966 498.422 553.052 497.545 551.931C496.668 550.811 496.048 549.512 495.728 548.126C495.643 547.513 495.679 546.889 495.836 546.289C495.992 545.69 496.265 545.127 496.639 544.633C497.013 544.14 497.481 543.725 498.016 543.412C498.55 543.099 499.141 542.895 499.755 542.811H500.258C504.285 542.811 508.312 548.61 509.44 551.972C509.44 552.173 510.064 554.811 510.326 556.16C510.306 555.018 510.347 553.875 510.447 552.737V544.683C510.447 543.757 510.306 542.871 510.245 541.945C510.124 540.596 509.943 539.227 509.762 537.918C506.676 538.1 503.581 537.815 500.58 537.072C499.225 536.622 497.982 535.883 496.94 534.906C495.897 533.929 495.078 532.738 494.54 531.414C494.352 530.827 494.282 530.209 494.333 529.595C494.384 528.981 494.555 528.382 494.838 527.835C495.12 527.287 495.508 526.8 495.978 526.402C496.449 526.004 496.993 525.702 497.58 525.515L498.164 525.374C502.07 524.75 507.024 529.884 508.614 533.025C508.614 533.146 508.936 533.831 509.259 534.676C509.037 533.327 508.816 531.978 508.554 530.649C507.769 526.803 506.883 522.917 505.977 519.011C505.795 518.206 505.634 517.4 505.453 516.575C502.281 516.778 499.096 516.493 496.01 515.729C494.653 515.286 493.41 514.551 492.367 513.578C491.324 512.604 490.505 511.414 489.969 510.091C489.781 509.504 489.711 508.886 489.762 508.272C489.813 507.658 489.985 507.06 490.267 506.512C490.55 505.964 490.937 505.477 491.408 505.079C491.878 504.681 492.423 504.38 493.01 504.192L493.594 504.051C497.5 503.427 502.453 508.561 504.044 511.702C504.044 511.823 504.426 512.649 504.789 513.595C504.326 511.461 503.903 509.346 503.54 507.212C502.917 503.577 502.534 499.904 502.393 496.219C499.128 496.418 495.852 496.14 492.667 495.393C491.31 494.946 490.066 494.208 489.022 493.231C487.979 492.254 487.162 491.061 486.627 489.735C486.439 489.148 486.369 488.53 486.42 487.916C486.471 487.301 486.642 486.703 486.925 486.155C487.207 485.607 487.595 485.121 488.065 484.723C488.536 484.325 489.08 484.023 489.667 483.836L490.231 483.695C494.137 483.07 499.09 488.205 500.701 491.346C500.701 491.587 501.95 494.608 502.312 495.715C502.258 492.088 502.528 488.462 503.117 484.883C503.607 481.685 504.279 478.519 505.131 475.399C505.936 472.5 506.822 469.882 507.648 467.587C508.091 466.358 508.534 465.231 508.936 464.184C508.936 464.184 508.695 459.412 508.715 459.11C508.977 455.586 511.574 448.922 515.42 447.995C516.026 447.869 516.65 447.864 517.258 447.98C517.866 448.096 518.445 448.331 518.961 448.671C519.478 449.012 519.922 449.451 520.268 449.964C520.614 450.477 520.855 451.054 520.977 451.66C520.987 451.814 520.987 451.969 520.977 452.123C520.989 453.545 520.693 454.952 520.109 456.249C519.525 457.545 518.667 458.7 517.594 459.633C515.026 461.538 512.181 463.039 509.158 464.083C508.755 465.171 508.332 466.338 507.889 467.667C507.124 469.963 506.279 472.58 505.554 475.48C505.373 476.265 505.191 477.111 505.01 477.916C505.594 476.607 506.44 474.835 506.54 474.674C508.413 471.674 513.769 466.963 517.615 467.909C518.808 468.238 519.821 469.027 520.433 470.103C521.044 471.179 521.204 472.454 520.876 473.647C520.835 473.819 520.781 473.987 520.715 474.151C520.077 475.426 519.168 476.546 518.052 477.433C516.935 478.32 515.638 478.952 514.252 479.285C511.076 479.768 507.844 479.768 504.668 479.285C504.285 481.097 503.943 482.95 503.681 484.903C503.175 488.449 502.979 492.034 503.097 495.615V496.239C503.279 495.554 504.567 491.809 504.688 491.567C506.218 488.366 511.03 483.111 514.957 483.634C515.565 483.734 516.148 483.954 516.671 484.279C517.195 484.604 517.649 485.03 518.008 485.531C518.367 486.032 518.624 486.599 518.764 487.2C518.903 487.8 518.924 488.422 518.823 489.03C518.832 489.185 518.832 489.339 518.823 489.493C518.322 490.825 517.539 492.033 516.528 493.034C515.516 494.035 514.301 494.805 512.963 495.292C509.791 496.155 506.503 496.522 503.218 496.38C503.442 499.949 503.9 503.501 504.587 507.011C505.071 509.588 505.675 512.206 506.319 514.823C506.581 513.917 507.769 510.454 507.889 510.212C509.4 507.011 514.212 501.756 518.138 502.279C518.745 502.375 519.328 502.589 519.852 502.91C520.376 503.231 520.832 503.653 521.193 504.15C521.554 504.648 521.813 505.212 521.956 505.81C522.099 506.408 522.122 507.028 522.024 507.635L521.903 508.138C521.416 509.474 520.64 510.687 519.63 511.689C518.621 512.691 517.404 513.459 516.064 513.937C512.902 514.787 509.631 515.16 506.359 515.045L507.245 518.588C508.212 522.474 509.259 526.36 510.064 530.206C510.366 531.555 510.608 532.884 510.849 534.233C511.292 532.884 512.118 530.488 512.218 530.206C513.729 527.005 518.561 521.75 522.467 522.273C523.074 522.369 523.657 522.583 524.181 522.904C524.705 523.225 525.161 523.647 525.522 524.144C525.883 524.642 526.142 525.206 526.285 525.804C526.428 526.402 526.451 527.022 526.353 527.629L526.232 528.132C525.745 529.468 524.969 530.681 523.959 531.683C522.95 532.685 521.733 533.453 520.393 533.931C517.346 534.772 514.189 535.145 511.031 535.039C511.433 537.253 511.776 539.448 512.017 541.643C512.017 542.589 512.259 543.556 512.279 544.462C512.299 545.368 512.279 546.294 512.42 547.2V555.093C512.661 553.684 513.064 551.449 513.125 551.247C514.151 547.865 518.098 541.925 522.064 541.844C523.302 541.855 524.485 542.354 525.356 543.232C526.227 544.111 526.716 545.298 526.716 546.536C526.726 546.717 526.726 546.898 526.716 547.079C526.428 548.472 525.839 549.785 524.991 550.926C524.142 552.066 523.054 553.008 521.803 553.684C518.832 555.014 515.674 555.876 512.44 556.241C512.44 558.254 512.44 560.368 512.259 562.281C511.977 568.322 511.534 573.315 511.151 576.798C510.769 580.282 510.487 582.315 510.487 582.315C510.462 582.497 510.402 582.671 510.309 582.829C510.217 582.987 510.094 583.125 509.948 583.236C509.802 583.346 509.636 583.427 509.459 583.472C509.282 583.518 509.098 583.529 508.916 583.503C508.552 583.448 508.225 583.253 508.003 582.96C507.781 582.667 507.682 582.298 507.728 581.933C508.096 580.191 508.364 578.43 508.534 576.658Z" fill="#7A6EFF"/>
<path d="M504.366 478.762C504.366 478.762 497.56 477.251 495.103 475.379C493.919 474.591 492.922 473.554 492.181 472.34C491.44 471.127 490.974 469.765 490.815 468.352C490.788 467.109 491.253 465.906 492.109 465.004C492.965 464.103 494.143 463.576 495.385 463.54H495.869C499.795 463.962 503.218 470.224 503.923 473.607C504.003 473.99 504.426 478.782 504.366 478.762Z" fill="#7A6EFF"/>
<path opacity="0.3" d="M347.216 258.68C348.422 261.998 350.64 264.853 353.557 266.842C356.474 268.831 359.942 269.853 363.472 269.763C365.295 269.717 367.098 269.372 368.809 268.74C371.942 267.599 374.666 265.554 376.636 262.864C378.607 260.174 379.736 256.961 379.88 253.629C380.024 250.298 379.178 246.999 377.447 244.149C375.716 241.299 373.179 239.026 370.157 237.618C367.135 236.21 363.763 235.729 360.467 236.237C357.172 236.746 354.101 238.22 351.643 240.473C349.186 242.726 347.451 245.658 346.66 248.897C345.868 252.136 346.054 255.537 347.195 258.67L347.216 258.68Z" fill="#FAFAFA"/>
<path opacity="0.4" d="M349.822 242.424L379.574 256.287C379.625 256.032 379.676 255.787 379.717 255.531C379.98 253.893 379.997 252.225 379.768 250.583L354.075 238.61C352.449 239.628 351.011 240.918 349.822 242.424Z" fill="#FAFAFA"/>
<path opacity="0.4" d="M338.225 247.591L375.619 265.004C378.218 262.735 380.258 259.896 381.578 256.708L340.753 237.683C339.162 240.748 338.297 244.138 338.225 247.591Z" fill="#FAFAFA"/>
<path d="M356.406 234.633C360.016 233.325 363.933 233.116 367.661 234.032C371.39 234.948 374.763 236.949 377.355 239.782C379.947 242.614 381.642 246.151 382.225 249.946C382.808 253.741 382.254 257.624 380.631 261.104C379.009 264.584 376.392 267.505 373.11 269.498C369.829 271.492 366.03 272.468 362.194 272.304C358.358 272.14 354.657 270.842 351.558 268.576C348.459 266.309 346.101 263.175 344.782 259.569C343.904 257.169 343.508 254.619 343.617 252.065C343.727 249.512 344.339 247.005 345.419 244.689C346.499 242.372 348.025 240.291 349.91 238.566C351.796 236.84 354.003 235.504 356.406 234.633ZM368.307 267.35C371.155 266.312 373.633 264.454 375.426 262.01C377.219 259.566 378.247 256.645 378.381 253.617C378.515 250.588 377.748 247.588 376.178 244.995C374.608 242.402 372.304 240.332 369.558 239.048C366.812 237.763 363.747 237.322 360.751 237.778C357.754 238.235 354.959 239.569 352.721 241.613C350.482 243.657 348.899 246.318 348.172 249.261C347.445 252.204 347.606 255.297 348.636 258.148C349.323 260.044 350.378 261.785 351.739 263.273C353.1 264.76 354.741 265.965 356.568 266.818C358.395 267.671 360.372 268.155 362.386 268.242C364.401 268.33 366.413 268.02 368.307 267.329V267.35Z" fill="#4A3AFF"/>
<path opacity="0.3" d="M356.406 234.633C360.016 233.325 363.933 233.116 367.661 234.032C371.39 234.948 374.763 236.949 377.355 239.782C379.947 242.614 381.642 246.151 382.225 249.946C382.808 253.741 382.254 257.624 380.631 261.104C379.009 264.584 376.392 267.505 373.11 269.498C369.829 271.492 366.03 272.468 362.194 272.304C358.358 272.14 354.657 270.842 351.558 268.576C348.459 266.309 346.101 263.175 344.782 259.569C343.904 257.169 343.508 254.619 343.617 252.065C343.727 249.512 344.339 247.005 345.419 244.689C346.499 242.372 348.025 240.291 349.91 238.566C351.796 236.84 354.003 235.504 356.406 234.633ZM368.307 267.35C371.155 266.312 373.633 264.454 375.426 262.01C377.219 259.566 378.247 256.645 378.381 253.617C378.515 250.588 377.748 247.588 376.178 244.995C374.608 242.402 372.304 240.332 369.558 239.048C366.812 237.763 363.747 237.322 360.751 237.778C357.754 238.235 354.959 239.569 352.721 241.613C350.482 243.657 348.899 246.318 348.172 249.261C347.445 252.204 347.606 255.297 348.636 258.148C349.323 260.044 350.378 261.785 351.739 263.273C353.1 264.76 354.741 265.965 356.568 266.818C358.395 267.671 360.372 268.155 362.386 268.242C364.401 268.33 366.413 268.02 368.307 267.329V267.35Z" fill="#170F49"/>
<path d="M366.175 270.443C367.473 276.717 369.277 282.826 371.15 288.894C372.148 291.915 373.077 294.949 374.157 297.928L375.742 302.425C375.991 303.282 376.433 304.07 377.035 304.729C377.637 305.388 378.382 305.9 379.214 306.224C380.099 306.602 381.094 306.628 381.998 306.298C382.902 305.968 383.646 305.307 384.079 304.448C384.508 303.665 384.75 302.795 384.788 301.904C384.826 301.013 384.658 300.125 384.298 299.309L382.617 294.853C381.523 291.874 380.28 288.949 379.104 285.997C376.644 280.133 374.088 274.311 371.041 268.667C370.749 268.101 370.262 267.662 369.67 267.43C369.078 267.199 368.422 267.192 367.824 267.41C367.227 267.628 366.73 268.056 366.426 268.615C366.123 269.173 366.033 269.823 366.175 270.443Z" fill="#4A3AFF"/>
<path opacity="0.3" d="M366.175 270.443C367.473 276.717 369.277 282.826 371.15 288.894C372.148 291.915 373.077 294.949 374.157 297.928L375.742 302.425C375.991 303.282 376.433 304.07 377.035 304.729C377.637 305.388 378.382 305.9 379.214 306.224C380.099 306.602 381.094 306.628 381.998 306.298C382.902 305.968 383.646 305.307 384.079 304.448C384.508 303.665 384.75 302.795 384.788 301.904C384.826 301.013 384.658 300.125 384.298 299.309L382.617 294.853C381.523 291.874 380.28 288.949 379.104 285.997C376.644 280.133 374.088 274.311 371.041 268.667C370.749 268.101 370.262 267.662 369.67 267.43C369.078 267.199 368.422 267.192 367.824 267.41C367.227 267.628 366.73 268.056 366.426 268.615C366.123 269.173 366.033 269.823 366.175 270.443Z" fill="#170F49"/>
<path d="M467.19 264.471C467.436 264.812 467.833 265.414 468.147 265.906L469.172 267.505C469.842 268.585 470.539 269.692 471.085 270.826C472.315 273.043 473.423 275.324 474.407 277.66C476.341 282.192 477.541 287.005 477.96 291.915V292.831V293.022C477.96 293.145 477.714 293.541 477.017 293.938C475.046 294.879 472.92 295.453 470.744 295.632C465.492 296.144 460.204 296.19 454.944 295.769L453.755 301.441C459.388 303.266 465.249 304.292 471.167 304.489C472.761 304.502 474.354 304.415 475.937 304.229C477.737 304.017 479.499 303.557 481.172 302.862C483.367 301.991 485.265 300.506 486.639 298.585C487.383 297.47 487.916 296.229 488.211 294.922C488.437 293.857 488.543 292.771 488.525 291.683C488.542 285.44 487.383 279.25 485.108 273.437C484.06 270.598 482.818 267.836 481.391 265.168C480.68 263.801 479.915 262.544 479.122 261.259C478.725 260.617 478.315 259.974 477.878 259.346C477.441 258.717 477.044 258.129 476.511 257.364L467.19 264.471Z" fill="#FFC1B4"/>
<path d="M471.277 245.46C476.006 246.608 487.186 265.25 487.186 265.25L462.134 275.623C462.134 275.623 457.61 261.437 460.453 255.765C463.405 249.86 464.895 243.888 471.277 245.46Z" fill="#4A3AFF"/>
<path opacity="0.2" d="M471.277 245.46C476.006 246.608 487.186 265.25 487.186 265.25L462.134 275.623C462.134 275.623 457.61 261.437 460.453 255.765C463.405 249.86 464.895 243.888 471.277 245.46Z" fill="#170F49"/>
<path d="M453.892 295.181L442.411 293.965L448.794 303.614C448.794 303.614 456.12 302.944 457.992 298.557L453.892 295.181Z" fill="#FFC1B4"/>
<path d="M434.225 299.076L443.04 308.657L448.862 303.614L442.411 293.965L434.225 299.076Z" fill="#FFC1B4"/>
<path d="M468.994 573.271C470.018 573.245 471.035 573.108 472.029 572.861C472.079 572.848 472.124 572.82 472.158 572.781C472.192 572.742 472.213 572.694 472.22 572.642C472.23 572.591 472.225 572.538 472.205 572.49C472.186 572.441 472.153 572.399 472.111 572.369C471.714 572.109 468.27 569.868 466.917 570.469C466.767 570.538 466.637 570.645 466.541 570.779C466.445 570.913 466.386 571.07 466.37 571.235C466.318 571.495 466.332 571.763 466.411 572.016C466.49 572.27 466.631 572.499 466.821 572.683C467.454 573.128 468.223 573.336 468.994 573.271ZM471.25 572.478C469.254 572.875 467.764 572.806 467.149 572.273C467.023 572.153 466.931 572 466.883 571.832C466.835 571.664 466.832 571.486 466.876 571.317C466.875 571.241 466.897 571.167 466.938 571.104C466.98 571.041 467.039 570.991 467.108 570.961C467.846 570.661 469.842 571.604 471.25 572.478Z" fill="#4A3AFF"/>
<path d="M471.961 572.875C472.032 572.872 472.1 572.842 472.15 572.791C472.201 572.741 472.231 572.673 472.234 572.602C472.234 572.465 472.234 569.171 471.004 568.064C470.853 567.919 470.672 567.81 470.473 567.746C470.274 567.682 470.063 567.665 469.856 567.695C469.638 567.698 469.428 567.775 469.261 567.915C469.095 568.054 468.981 568.247 468.94 568.461C468.68 569.745 470.744 572.219 471.824 572.834C471.865 572.86 471.912 572.874 471.961 572.875ZM470.047 568.228C470.268 568.229 470.479 568.318 470.635 568.474C471.347 569.535 471.71 570.792 471.674 572.069C470.594 571.208 469.309 569.335 469.473 568.57C469.473 568.433 469.569 568.283 469.924 568.242L470.047 568.228Z" fill="#4A3AFF"/>
<path d="M416.922 573.271C418.135 573.245 419.343 573.107 420.531 572.861C420.584 572.852 420.633 572.826 420.67 572.786C420.707 572.747 420.73 572.696 420.736 572.642C420.748 572.586 420.741 572.527 420.716 572.475C420.691 572.423 420.65 572.381 420.599 572.355C420.079 572.096 415.542 569.758 414.134 570.524C414.001 570.594 413.888 570.698 413.807 570.825C413.725 570.952 413.678 571.098 413.669 571.248C413.628 571.498 413.65 571.754 413.733 571.993C413.817 572.232 413.959 572.446 414.148 572.615C414.972 573.14 415.95 573.372 416.922 573.271ZM419.656 572.478C417.114 572.902 415.228 572.793 414.531 572.164C414.416 572.054 414.33 571.919 414.278 571.769C414.225 571.62 414.209 571.46 414.23 571.303C414.231 571.24 414.249 571.179 414.283 571.126C414.317 571.073 414.365 571.03 414.421 571.002C415.159 570.592 417.756 571.604 419.628 572.478H419.656Z" fill="#4A3AFF"/>
<path d="M420.475 572.874C420.523 572.893 420.577 572.893 420.625 572.874C420.665 572.847 420.696 572.81 420.718 572.767C420.739 572.724 420.75 572.676 420.748 572.628C420.748 572.505 420.488 569.416 419.053 568.227C418.849 568.048 418.61 567.913 418.352 567.831C418.093 567.749 417.82 567.721 417.55 567.749C416.798 567.831 416.58 568.214 416.539 568.528C416.32 569.895 418.971 572.273 420.365 572.902L420.475 572.874ZM417.741 568.227C418.088 568.229 418.423 568.355 418.684 568.583C419.487 569.598 419.963 570.832 420.051 572.123C418.684 571.275 416.839 569.389 416.976 568.555C416.976 568.555 416.976 568.282 417.509 568.241L417.741 568.227Z" fill="#4A3AFF"/>
<path d="M451.309 217.77C449.942 224.603 446.826 238.271 451.555 242.849C451.555 242.849 449.655 249.683 437.026 249.683C423.154 249.683 430.438 242.849 430.438 242.849C438.024 241.045 437.874 235.428 436.575 230.152L451.309 217.77Z" fill="#FFC1B4"/>
<path d="M433.062 572.601H421.609L421.021 546.086H432.475L433.062 572.601Z" fill="#FFC1B4"/>
<path d="M485.081 572.601H473.628L470.115 546.086H481.568L485.081 572.601Z" fill="#FFC1B4"/>
<path d="M472.93 571.276H485.791C486.011 571.271 486.226 571.347 486.392 571.491C486.559 571.635 486.666 571.836 486.693 572.055L488.06 582.237C488.083 582.495 488.052 582.755 487.969 583.001C487.886 583.246 487.753 583.472 487.578 583.663C487.403 583.855 487.191 584.008 486.954 584.113C486.717 584.218 486.46 584.272 486.201 584.273C481.718 584.191 479.559 583.932 473.901 583.932C470.429 583.932 465.345 584.287 460.534 584.287C455.723 584.287 455.504 579.531 457.514 579.107C466.493 577.18 467.928 574.515 470.962 571.973C471.516 571.517 472.213 571.27 472.93 571.276Z" fill="#170F49"/>
<path d="M421.227 571.275H434.088C434.309 571.273 434.523 571.35 434.692 571.494C434.86 571.637 434.971 571.836 435.004 572.054L436.37 582.237C436.397 582.495 436.37 582.755 436.289 583.002C436.208 583.248 436.077 583.475 435.903 583.667C435.729 583.859 435.516 584.012 435.279 584.117C435.041 584.221 434.785 584.274 434.525 584.273C430.042 584.191 427.883 583.931 422.225 583.931C418.74 583.931 411.537 584.287 406.74 584.287C401.942 584.287 401.71 579.531 403.705 579.107C412.699 577.18 416.238 574.515 419.286 571.972C419.831 571.52 420.518 571.273 421.227 571.275Z" fill="#170F49"/>
<path d="M421.022 546.1L421.323 559.754H432.776L432.475 546.1H421.022Z" fill="#FB8A72"/>
<path d="M481.568 546.1H470.115L471.932 559.754H483.386L481.568 546.1Z" fill="#FB8A72"/>
<path d="M411.072 245.787C411.072 245.787 405.605 247.715 416.088 314.876H462.557C461.901 295.96 461.956 284.288 471.25 245.459C464.747 244.115 458.156 243.243 451.528 242.849C444.498 242.356 437.442 242.356 430.412 242.849C421.364 243.683 411.072 245.787 411.072 245.787Z" fill="#4A3AFF"/>
<path opacity="0.2" d="M411.072 245.787C411.072 245.787 405.605 247.715 416.088 314.876H462.557C461.901 295.96 461.956 284.288 471.25 245.459C464.747 244.115 458.156 243.243 451.528 242.849C444.498 242.356 437.442 242.356 430.412 242.849C421.364 243.683 411.072 245.787 411.072 245.787Z" fill="#170F49"/>
<path d="M407.313 258.525C406.315 264.389 405.017 270.525 403.554 276.375C402.803 279.313 401.955 282.211 401.012 285.026C400.131 287.782 399.058 290.472 397.8 293.077C397.23 294.277 396.577 295.437 395.846 296.548C395.504 297.081 395.149 297.532 394.793 297.997C394.584 298.272 394.351 298.528 394.096 298.762C393.767 299.087 393.328 299.277 392.866 299.295C391.954 299.281 391.057 299.062 390.242 298.653C387.822 297.441 385.593 295.88 383.627 294.02C382.561 293.035 381.481 291.997 380.429 290.931C379.377 289.865 378.338 288.689 377.395 287.637L372.502 290.739C373.249 292.256 374.079 293.73 374.989 295.154C375.872 296.574 376.835 297.943 377.873 299.254C380.04 302.183 382.699 304.712 385.732 306.73C387.62 307.976 389.764 308.779 392.005 309.081C394.721 309.415 397.469 308.813 399.796 307.373C400.839 306.706 401.798 305.917 402.652 305.022C403.319 304.303 403.949 303.55 404.538 302.767C405.634 301.334 406.629 299.827 407.518 298.256C410.646 292.287 413.09 285.982 414.802 279.464C415.677 276.307 416.497 273.149 417.153 269.897C417.809 266.644 418.424 263.569 418.903 260.206L407.313 258.525Z" fill="#FFC1B4"/>
<path d="M411.071 245.788C406.342 246.99 402.871 266.412 402.871 266.412L420.994 278.781C420.994 278.781 428.415 255.655 424.821 250.475C421.117 245.063 417.96 244.038 411.071 245.788Z" fill="#4A3AFF"/>
<path opacity="0.2" d="M411.071 245.788C406.342 246.99 402.871 266.412 402.871 266.412L420.994 278.781C420.994 278.781 428.415 255.655 424.821 250.475C421.117 245.063 417.96 244.038 411.071 245.788Z" fill="#170F49"/>
<path d="M373.145 291.628L366.94 282.771L377.724 282.539C377.724 282.539 380.266 287.664 378.544 292.106L373.145 291.628Z" fill="#FFC1B4"/>
<path d="M365.97 278.152L366.298 277.291C366.37 277.104 366.485 276.937 366.633 276.804C366.782 276.67 366.96 276.573 367.153 276.521C367.346 276.469 367.549 276.464 367.745 276.505C367.94 276.546 368.124 276.632 368.28 276.758L371.327 279.19C371.77 279.549 372.314 279.76 372.882 279.794C373.451 279.828 374.016 279.684 374.498 279.382L375.441 278.316C375.534 278.204 375.649 278.114 375.781 278.052C375.912 277.991 376.055 277.959 376.2 277.959C376.345 277.959 376.488 277.991 376.619 278.052C376.75 278.114 376.866 278.204 376.958 278.316L377.191 278.589C377.685 279.191 377.998 279.921 378.093 280.694L378.626 285.149L376.357 283.359L366.926 282.744L366.052 280.858C365.857 280.436 365.749 279.978 365.735 279.513C365.721 279.048 365.801 278.585 365.97 278.152Z" fill="#FFC1B4"/>
<path d="M450.94 200.671C452.812 211.892 453.837 216.594 449.573 223.591C443.149 234.102 428.99 234.033 423.823 223.591C419.163 214.229 416.894 197.459 426.68 190.503C428.82 188.954 431.322 187.982 433.947 187.679C436.571 187.376 439.229 187.754 441.665 188.775C444.101 189.796 446.234 191.427 447.858 193.51C449.482 195.593 450.543 198.059 450.94 200.671Z" fill="#FFC1B4"/>
<path d="M420.967 263.746C410.033 277.168 430.534 293.965 456.078 288.634C492.652 280.981 461.545 265.113 473.695 253.605C485.846 242.097 475.171 234.935 467.777 226.393C460.383 217.851 459.823 217.591 460.37 201.218C460.916 184.844 442.506 180.717 428.716 185.391C418.684 188.808 423.249 204.361 429.085 212.357C434.921 220.352 418.971 225.245 420.024 236.179C421.076 247.113 431.231 251.213 420.967 263.746Z" fill="#170F49"/>
<path d="M437.573 183.669C425.847 182.426 418.015 183.929 417.072 193.66C416.129 203.391 430.548 209.077 430.548 209.077L437.573 183.669Z" fill="#170F49"/>
<path d="M432.639 210.457C432.895 212.648 432.281 214.851 430.93 216.594C429.112 218.876 426.516 217.674 425.6 215.077C424.766 212.74 424.725 208.722 427.226 207.369C427.777 207.085 428.389 206.944 429.008 206.957C429.627 206.971 430.232 207.139 430.77 207.445C431.308 207.752 431.76 208.188 432.086 208.714C432.413 209.24 432.602 209.839 432.639 210.457Z" fill="#FFC1B4"/>
<path d="M428.375 314.89C428.375 314.89 430.945 338.48 434.361 367.031C436.548 385.249 439.077 405.491 441.51 422.917C442.111 427.331 442.726 431.554 443.314 435.532C448.644 471.299 469.186 557.171 469.186 557.171H484.794C484.794 557.171 476.074 474.224 473.477 438.839C466.903 349.331 477.345 335.691 462.544 314.944L428.375 314.89Z" fill="#170F49"/>
<path d="M466.616 557.376H487.363L487.008 549.996L464.907 549.436L466.616 557.376Z" fill="#4A3AFF"/>
<path opacity="0.8" d="M466.616 557.376H487.363L487.008 549.996L464.907 549.436L466.616 557.376Z" fill="white"/>
<path opacity="0.4" d="M434.361 367.031C436.548 385.249 439.076 405.491 441.509 422.917C445.145 404.411 453.345 358.68 440.457 350.644C437.354 354.744 435.427 360.47 434.361 367.031Z" fill="#170F49"/>
<path d="M416.088 314.876C416.088 314.876 408.694 400.871 409.254 435.777C409.801 472.092 418.958 557.116 418.958 557.116H434.389C434.389 557.116 436.083 474.21 437.682 438.552C439.432 399.668 450.133 314.876 450.133 314.876H416.088Z" fill="#170F49"/>
<path d="M416.58 557.376H436.944L437.313 549.996L414.872 549.436L416.58 557.376Z" fill="#4A3AFF"/>
<path opacity="0.8" d="M416.58 557.376H436.944L437.313 549.996L414.872 549.436L416.58 557.376Z" fill="white"/>
<path d="M463.295 312.156L465.372 316.256C465.523 316.584 465.14 316.912 464.607 316.912H415.842C415.432 316.912 415.076 316.707 415.063 316.448L414.666 312.348C414.666 312.061 415.008 311.815 415.459 311.815H462.543C462.687 311.801 462.832 311.826 462.964 311.886C463.096 311.946 463.21 312.039 463.295 312.156Z" fill="#4A3AFF"/>
<path opacity="0.5" d="M463.295 312.156L465.372 316.256C465.523 316.584 465.14 316.912 464.607 316.912H415.842C415.432 316.912 415.076 316.707 415.063 316.448L414.666 312.348C414.666 312.061 415.008 311.815 415.459 311.815H462.543C462.687 311.801 462.832 311.826 462.964 311.886C463.096 311.946 463.21 312.039 463.295 312.156Z" fill="white"/>
<path d="M456.995 317.391H458.252C458.512 317.391 458.703 317.268 458.689 317.104L458.129 311.637C458.129 311.487 457.897 311.35 457.637 311.35H456.38C456.134 311.35 455.942 311.487 455.956 311.637L456.516 317.104C456.475 317.295 456.694 317.391 456.995 317.391Z" fill="#170F49"/>
<path d="M426.379 317.391H427.637C427.883 317.391 428.074 317.268 428.06 317.104L427.514 311.637C427.514 311.487 427.268 311.35 427.022 311.35H425.764C425.505 311.35 425.313 311.487 425.327 311.637L425.887 317.104C425.901 317.295 426.12 317.391 426.379 317.391Z" fill="#170F49"/>
<path d="M177.416 481.523C179.432 480.103 181.604 477.576 181.675 474.907C181.702 474.282 181.597 473.658 181.368 473.075C181.14 472.493 180.791 471.965 180.346 471.525C179.901 471.085 179.369 470.743 178.783 470.521C178.198 470.299 177.573 470.202 176.948 470.237C173.186 470.577 169.85 476.483 169.055 479.762C169.055 480.046 168.487 484.603 168.558 484.589C168.629 484.575 175.031 483.212 177.416 481.523Z" fill="#7A6EFF"/>
<path d="M144.921 552.701C144.831 552.195 144.635 551.713 144.345 551.288C144.055 550.864 143.678 550.505 143.239 550.237C142.801 549.968 142.31 549.796 141.8 549.732C141.289 549.667 140.771 549.712 140.279 549.862C137.44 550.842 135.836 556.165 135.878 558.919C135.878 559.09 136.148 561.162 136.304 562.213C135.978 561.403 135.666 560.58 135.339 559.728C134.871 558.493 134.416 557.187 133.919 555.91L133.281 553.88C133.053 553.198 132.911 552.46 132.727 551.835C132.471 550.813 132.258 549.749 132.046 548.684C134.353 548.043 136.547 547.047 138.547 545.731C140.095 544.311 141.67 542.225 141.514 540.053C141.496 539.542 141.37 539.042 141.145 538.583C140.92 538.125 140.601 537.719 140.208 537.392C139.816 537.065 139.359 536.825 138.867 536.686C138.375 536.548 137.86 536.515 137.355 536.589C134.331 537.128 132.003 542.154 131.676 544.879C131.676 544.964 131.676 545.547 131.676 546.299C131.506 545.248 131.322 544.212 131.18 543.147C130.754 540.138 130.427 537.057 130.086 533.977C130.015 533.324 129.93 532.685 129.859 532.046C132.232 531.381 134.491 530.361 136.56 529.022C138.107 527.603 139.683 525.516 139.527 523.344C139.506 522.834 139.379 522.335 139.153 521.877C138.927 521.42 138.608 521.015 138.216 520.689C137.824 520.362 137.368 520.122 136.878 519.982C136.387 519.843 135.872 519.808 135.367 519.88C132.344 520.42 130.016 525.445 129.689 528.171C129.689 528.27 129.689 528.966 129.689 529.732C129.476 528.071 129.249 526.396 128.965 524.749C128.501 521.923 127.851 519.129 127.02 516.388C127.403 516.274 132.187 514.826 133.934 513.307C135.467 511.888 137.057 509.801 136.886 507.629C136.868 507.119 136.742 506.618 136.517 506.159C136.292 505.701 135.973 505.295 135.58 504.968C135.188 504.641 134.731 504.401 134.239 504.263C133.748 504.124 133.232 504.091 132.727 504.165C129.703 504.705 127.375 509.73 127.049 512.456C127.049 512.64 126.963 515.167 126.978 516.061C126.971 516.029 126.971 515.995 126.978 515.962C126.085 513.294 124.96 510.71 123.613 508.239C122.426 506.024 121.108 503.881 119.667 501.823C118.346 499.892 117.026 498.217 115.834 496.741C115.195 495.946 114.584 495.222 114.017 494.569C114.017 494.569 112.994 491.005 112.895 490.778C111.802 488.266 108.21 484.049 105.144 484.362C104.638 484.425 104.152 484.595 103.716 484.86C103.281 485.124 102.906 485.478 102.617 485.897C102.327 486.317 102.13 486.792 102.037 487.294C101.944 487.795 101.958 488.31 102.078 488.805C102.504 490.934 104.605 492.567 106.464 493.461C108.829 494.205 111.296 494.574 113.775 494.554C114.357 495.264 114.968 495.974 115.621 496.854C116.771 498.359 118.062 500.062 119.326 502.007C119.667 502.533 120.007 503.1 120.348 503.64C119.581 502.845 118.517 501.752 118.389 501.667C116.26 499.935 111.135 497.848 108.565 499.523C108.145 499.815 107.791 500.191 107.526 500.629C107.261 501.066 107.091 501.554 107.027 502.061C106.962 502.569 107.005 503.084 107.153 503.573C107.301 504.063 107.55 504.516 107.884 504.903C108.658 505.667 109.587 506.257 110.608 506.631C111.629 507.006 112.719 507.157 113.804 507.075C115.933 507.075 119.965 505.088 120.902 504.662C121.654 505.883 122.321 507.16 123.074 508.537C124.35 511.004 125.405 513.579 126.225 516.232C126.225 516.388 126.225 516.558 126.339 516.714C126.026 516.246 124.138 513.875 123.982 513.691C122.052 511.732 117.182 509.091 114.442 510.482C113.993 510.725 113.599 511.06 113.287 511.465C112.975 511.87 112.753 512.336 112.633 512.833C112.514 513.33 112.501 513.847 112.595 514.349C112.689 514.852 112.888 515.329 113.179 515.749C114.343 517.566 116.898 518.347 118.943 518.503C121.299 518.688 126.183 516.885 126.367 516.814C127.109 519.486 127.678 522.203 128.071 524.948C128.369 526.978 128.596 529.037 128.795 531.123C128.383 530.527 126.608 528.284 126.467 528.142C124.536 526.183 119.667 523.557 116.927 524.934C116.477 525.176 116.083 525.511 115.771 525.916C115.46 526.321 115.237 526.788 115.118 527.285C114.999 527.782 114.986 528.298 115.08 528.801C115.174 529.303 115.372 529.78 115.663 530.201C116.827 532.032 119.383 532.799 121.427 532.955C123.727 533.139 128.411 531.436 128.809 531.294C128.908 532.231 128.993 533.182 129.079 534.133C129.362 537.228 129.618 540.322 129.973 543.375C130.101 544.425 130.257 545.461 130.413 546.498C129.76 545.632 128.525 544.084 128.411 543.957C126.481 542.012 121.611 539.371 118.872 540.762C118.421 541.002 118.026 541.335 117.713 541.738C117.4 542.141 117.176 542.606 117.055 543.102C116.935 543.598 116.92 544.114 117.013 544.616C117.106 545.118 117.304 545.595 117.594 546.015C118.772 547.846 121.328 548.613 123.372 548.769C125.805 548.613 128.199 548.081 130.47 547.193C130.739 548.925 131.038 550.629 131.421 552.29C131.605 553.014 131.747 553.709 131.96 554.419C132.173 555.129 132.344 555.839 132.542 556.463C132.997 557.883 133.408 559.118 133.863 560.396C134.09 561.034 134.317 561.631 134.544 562.255C134.019 561.276 133.124 559.743 133.039 559.615C131.435 557.4 127.02 554.05 124.096 555.001C123.615 555.173 123.176 555.444 122.807 555.797C122.438 556.151 122.148 556.577 121.955 557.05C121.762 557.523 121.671 558.031 121.688 558.542C121.704 559.052 121.828 559.553 122.052 560.012C122.932 562 125.345 563.15 127.332 563.618C129.32 564.087 134.274 563.206 134.842 563.093C135.41 564.612 135.978 566.088 136.517 567.465C138.263 571.809 139.868 575.358 141.032 577.828C142.196 580.298 142.92 581.69 142.92 581.69C143.055 581.931 143.278 582.111 143.543 582.19C143.808 582.27 144.094 582.243 144.339 582.115C144.578 581.978 144.755 581.754 144.835 581.49C144.914 581.226 144.889 580.942 144.765 580.696C144.765 580.696 144.041 579.361 142.835 576.934C141.628 574.506 139.995 571.043 138.15 566.784C137.625 565.549 137.085 564.243 136.546 562.894C137.099 562.624 141.429 560.538 142.877 558.806C144.325 557.074 145.404 554.817 144.921 552.701Z" fill="#7A6EFF"/>
<path d="M120.902 504.066C120.902 504.066 125.487 501.227 126.807 499.225C127.943 497.507 128.894 494.966 128.227 492.979C128.073 492.493 127.818 492.044 127.479 491.663C127.141 491.282 126.725 490.976 126.261 490.766C125.796 490.556 125.292 490.446 124.783 490.443C124.273 490.44 123.768 490.545 123.301 490.75C120.462 492.056 119.61 497.521 119.965 500.247C119.965 500.474 120.902 504.094 120.902 504.066Z" fill="#7A6EFF"/>
<path d="M190.775 481.522C193.145 483.283 199.647 484.589 199.647 484.589C199.647 484.589 199.221 480.046 199.15 479.762C198.398 476.483 195.033 470.577 191.271 470.237C190.646 470.2 190.02 470.295 189.434 470.517C188.847 470.738 188.314 471.079 187.868 471.52C187.423 471.96 187.074 472.489 186.846 473.073C186.618 473.656 186.515 474.281 186.544 474.907C186.573 477.505 188.745 479.961 190.775 481.522Z" fill="#7A6EFF"/>
<path d="M217.747 544.482C213.985 544.638 210.308 550.359 209.4 553.61C209.4 553.794 209.002 555.938 208.803 557.301C208.803 556.477 208.803 555.697 208.803 554.859C208.803 553.198 208.718 551.537 208.647 549.763C208.647 548.911 208.534 548.045 208.463 547.165C208.392 546.285 208.264 545.376 208.165 544.482C207.895 542.395 207.526 540.308 207.1 538.193C208.519 538.193 213.715 538.037 216.001 536.986C218.286 535.936 220.898 533.948 221.466 531.308C221.625 530.701 221.652 530.067 221.548 529.448C221.444 528.829 221.209 528.24 220.861 527.718C220.512 527.196 220.057 526.754 219.525 526.421C218.993 526.088 218.397 525.872 217.775 525.786C214.028 525.346 209.527 530.456 208.136 533.537C208.051 533.721 207.299 536.035 206.915 537.313C206.646 536.049 206.39 534.786 206.092 533.522C205.198 529.86 204.175 526.183 203.182 522.506C202.869 521.385 202.585 520.249 202.287 519.128C203.097 519.128 209.002 519.128 211.501 517.907C213.999 516.686 216.398 514.869 216.966 512.228C217.122 511.621 217.148 510.988 217.043 510.37C216.937 509.752 216.703 509.164 216.355 508.643C216.006 508.121 215.552 507.68 215.021 507.346C214.491 507.012 213.896 506.794 213.275 506.706C209.527 506.28 205.041 511.391 203.65 514.457C203.537 514.684 202.458 518.02 202.231 518.886C201.578 516.402 200.953 513.932 200.442 511.462C199.734 508.143 199.246 504.78 198.98 501.397C199.42 501.397 205.666 501.397 208.25 500.176C210.535 499.126 213.147 497.138 213.729 494.498C213.883 493.89 213.907 493.256 213.8 492.638C213.693 492.02 213.457 491.432 213.107 490.911C212.758 490.39 212.303 489.949 211.772 489.615C211.24 489.282 210.645 489.064 210.024 488.975C206.276 488.549 201.791 493.66 200.399 496.726C200.286 496.968 199.136 500.559 198.98 501.212C198.98 501.028 198.98 500.815 198.98 500.616C198.79 497.21 198.904 493.795 199.32 490.409C199.533 488.535 199.831 486.747 200.172 485.029C201.393 485.157 206.816 485.639 209.3 484.802C211.785 483.964 214.51 482.332 215.362 479.805C215.581 479.218 215.674 478.592 215.636 477.967C215.597 477.342 215.428 476.733 215.139 476.177C214.85 475.622 214.447 475.133 213.958 474.743C213.468 474.353 212.902 474.071 212.296 473.913C208.605 473.076 203.579 477.661 201.862 480.557C201.776 480.713 200.996 482.417 200.442 483.68C200.598 482.899 200.754 482.09 200.925 481.352C201.563 478.513 202.344 476.057 202.997 473.842C203.395 472.593 203.778 471.457 204.147 470.407C205.382 469.91 210.322 467.88 212.111 466.02C213.9 464.161 215.589 461.421 215.177 458.795C215.104 458.172 214.9 457.572 214.578 457.033C214.257 456.495 213.826 456.03 213.313 455.67C212.799 455.309 212.216 455.061 211.6 454.942C210.985 454.822 210.351 454.834 209.74 454.976C206.092 455.927 203.75 462.315 203.551 465.68C203.551 465.964 203.806 470.549 203.863 470.521H203.934C203.565 471.528 203.168 472.607 202.756 473.8C202.032 476 201.223 478.499 200.527 481.281C199.741 484.267 199.129 487.296 198.696 490.352C198.201 493.774 198.011 497.232 198.128 500.687V500.815C197.759 499.779 196.623 496.897 196.51 496.698C194.92 493.717 190.093 488.919 186.388 489.6C185.558 489.749 184.794 490.15 184.202 490.75C183.611 490.147 182.847 489.745 182.015 489.6C178.31 488.933 173.498 493.731 171.908 496.698C171.794 496.897 170.644 499.779 170.275 500.815C170.275 500.815 170.275 500.73 170.275 500.687C170.388 497.232 170.193 493.773 169.693 490.352C169.258 487.297 168.651 484.269 167.876 481.281C167.181 478.442 166.371 476 165.633 473.8C165.222 472.607 164.838 471.528 164.455 470.521H164.526C164.526 470.521 164.852 465.964 164.838 465.68C164.654 462.315 162.297 455.927 158.649 454.976C158.038 454.834 157.404 454.822 156.789 454.942C156.173 455.061 155.59 455.309 155.077 455.67C154.563 456.03 154.132 456.495 153.811 457.033C153.489 457.572 153.285 458.172 153.212 458.795C152.8 461.421 154.532 464.217 156.278 466.02C158.024 467.823 163.007 469.91 164.242 470.407C164.611 471.457 164.994 472.593 165.406 473.842C166.088 476.057 166.826 478.57 167.465 481.352C167.635 482.09 167.791 482.899 167.961 483.68C167.408 482.417 166.641 480.713 166.542 480.557C164.824 477.718 159.799 473.076 156.122 473.913C155.515 474.069 154.947 474.35 154.456 474.74C153.965 475.129 153.562 475.618 153.272 476.174C152.983 476.73 152.814 477.341 152.777 477.966C152.739 478.592 152.834 479.218 153.056 479.805C153.907 482.332 156.718 484.064 159.103 484.802C161.488 485.54 167.01 485.157 168.245 485.029C168.572 486.747 168.87 488.535 169.083 490.409C169.504 493.794 169.623 497.21 169.438 500.616C169.438 500.815 169.438 501.028 169.367 501.212C169.211 500.559 168.047 496.954 167.947 496.726C166.528 493.66 162.056 488.549 158.308 488.975C157.688 489.063 157.092 489.281 156.562 489.615C156.031 489.949 155.577 490.391 155.229 490.912C154.88 491.433 154.646 492.022 154.54 492.639C154.435 493.257 154.461 493.89 154.617 494.498C155.185 497.095 157.797 499.083 160.083 500.176C162.666 501.368 168.913 501.397 169.353 501.397C169.071 504.79 168.573 508.161 167.862 511.49C167.337 513.96 166.712 516.43 166.059 518.915C165.832 518.049 164.753 514.656 164.64 514.486C163.22 511.419 158.748 506.309 155 506.735C154.38 506.823 153.785 507.041 153.254 507.374C152.724 507.708 152.269 508.15 151.921 508.671C151.573 509.192 151.338 509.781 151.233 510.399C151.127 511.017 151.154 511.65 151.309 512.257C151.877 514.855 154.489 516.842 156.775 517.935C159.273 519.085 165.193 519.156 165.988 519.156C165.69 520.278 165.406 521.413 165.094 522.535C164.1 526.212 163.078 529.888 162.255 533.551C161.942 534.814 161.687 536.078 161.417 537.341C161.034 536.064 160.281 533.75 160.196 533.565C158.777 530.485 154.305 525.374 150.557 525.814C149.936 525.902 149.341 526.12 148.811 526.454C148.28 526.787 147.826 527.229 147.478 527.75C147.129 528.272 146.895 528.86 146.789 529.478C146.684 530.096 146.71 530.729 146.866 531.336C147.434 533.934 150.046 535.907 152.332 537.015C154.617 538.122 159.756 538.207 161.232 538.221C160.807 540.337 160.437 542.48 160.168 544.51C160.068 545.405 159.912 546.327 159.87 547.193C159.827 548.059 159.742 548.939 159.685 549.791C159.614 551.566 159.557 553.227 159.543 554.888C159.543 555.725 159.543 556.506 159.543 557.329C159.344 555.91 158.99 553.823 158.933 553.638C158.024 550.387 154.362 544.666 150.585 544.51C149.959 544.505 149.339 544.632 148.765 544.882C148.191 545.132 147.676 545.5 147.253 545.961C146.83 546.423 146.509 546.968 146.311 547.562C146.112 548.156 146.04 548.785 146.099 549.408C146.27 552.077 148.555 554.419 150.656 555.81C152.757 557.201 158.606 558.266 159.529 558.408C159.529 560.41 159.529 562.34 159.529 564.158C159.685 569.907 160.026 574.677 160.31 578.027C160.594 581.377 160.835 583.28 160.835 583.28C160.916 583.601 161.114 583.88 161.39 584.064C161.666 584.247 162.001 584.321 162.328 584.272C162.656 584.222 162.954 584.052 163.163 583.796C163.372 583.539 163.479 583.213 163.461 582.882C163.461 582.882 163.192 581.037 162.837 577.729C162.482 574.421 162.042 569.708 161.758 564.03C161.687 562.397 161.616 560.651 161.573 558.862C162.51 558.777 168.26 558.195 170.602 556.861C172.944 555.526 175.23 553.411 175.57 550.771C175.671 550.152 175.64 549.52 175.481 548.914C175.321 548.308 175.036 547.743 174.644 547.254C174.252 546.766 173.761 546.365 173.204 546.078C172.647 545.791 172.036 545.625 171.411 545.589C167.635 545.49 163.603 550.969 162.482 554.107C162.411 554.305 161.829 556.804 161.573 558.082C161.573 557.003 161.573 555.938 161.573 554.802C161.573 553.198 161.573 551.48 161.573 549.82C161.573 548.968 161.673 548.102 161.715 547.222C161.758 546.342 161.871 545.49 161.942 544.624C162.084 543.332 162.283 542.026 162.496 540.706C164.185 540.791 168.998 540.933 171.255 540.067C173.512 539.201 176.351 537.355 177.075 534.8C177.27 534.205 177.337 533.575 177.272 532.952C177.208 532.328 177.012 531.726 176.699 531.183C176.385 530.641 175.961 530.171 175.453 529.803C174.946 529.436 174.367 529.179 173.753 529.051C170.048 528.369 165.236 533.182 163.632 536.149L163.007 537.696C163.234 536.418 163.475 535.141 163.759 533.863C164.554 530.215 165.491 526.524 166.414 522.819L166.968 520.505C168.387 520.576 173.611 520.789 175.982 519.88C178.353 518.972 181.079 517.169 181.817 514.613C182.009 514.017 182.074 513.387 182.007 512.763C181.94 512.14 181.743 511.538 181.429 510.996C181.114 510.454 180.689 509.984 180.181 509.617C179.673 509.249 179.094 508.993 178.481 508.864C174.775 508.183 169.963 512.995 168.359 515.962C168.359 516.076 167.99 516.856 167.635 517.751C168.103 515.735 168.543 513.719 168.927 511.703C169.599 508.249 170.036 504.754 170.233 501.241C171.028 501.241 176.947 501.61 179.517 500.616C181.319 499.956 182.929 498.859 184.202 497.422C185.474 498.859 187.084 499.956 188.886 500.616C191.456 501.61 197.404 501.283 198.171 501.241C198.375 504.753 198.811 508.248 199.477 511.703C199.86 513.719 200.3 515.735 200.768 517.751C200.414 516.856 200.101 516.076 200.044 515.962C198.454 512.995 193.642 508.183 189.923 508.864C189.309 508.993 188.73 509.249 188.223 509.616C187.715 509.984 187.291 510.454 186.978 510.997C186.664 511.539 186.469 512.142 186.404 512.765C186.339 513.388 186.406 514.018 186.601 514.613C187.339 517.169 190.079 518.972 192.421 519.88C194.764 520.789 200.044 520.576 201.436 520.505C201.62 521.286 201.805 522.052 202.003 522.819C202.912 526.524 203.849 530.215 204.658 533.863C204.942 535.141 205.169 536.418 205.411 537.696C205.098 536.915 204.828 536.277 204.772 536.149C203.182 533.182 198.369 528.369 194.65 529.051C194.037 529.179 193.457 529.436 192.95 529.803C192.443 530.171 192.018 530.641 191.705 531.183C191.391 531.726 191.196 532.328 191.131 532.952C191.066 533.575 191.133 534.205 191.328 534.8C192.066 537.355 194.806 539.158 197.148 540.067C199.491 540.975 204.246 540.791 205.922 540.706C206.12 542.026 206.333 543.332 206.461 544.624C206.546 545.49 206.674 546.327 206.702 547.222C206.731 548.116 206.788 548.968 206.83 549.82C206.83 551.48 206.83 553.198 206.83 554.802C206.83 555.938 206.83 557.003 206.83 558.082C206.56 556.804 205.978 554.305 205.907 554.107C204.786 550.927 200.754 545.447 196.978 545.589C196.353 545.625 195.742 545.791 195.185 546.078C194.628 546.365 194.137 546.766 193.745 547.254C193.353 547.743 193.068 548.308 192.908 548.914C192.749 549.52 192.718 550.152 192.819 550.771C193.159 553.411 195.658 555.612 197.787 556.861C199.917 558.11 205.879 558.777 206.816 558.862C206.816 560.651 206.717 562.397 206.631 564.03C206.362 569.708 205.922 574.435 205.567 577.729C205.212 581.022 204.928 582.882 204.928 582.882C204.91 583.213 205.017 583.539 205.226 583.796C205.436 584.052 205.733 584.222 206.061 584.272C206.388 584.321 206.723 584.247 206.999 584.064C207.275 583.88 207.473 583.601 207.554 583.28C207.554 583.28 207.795 581.363 208.094 578.027C208.392 574.691 208.718 569.907 208.86 564.158C208.86 562.34 208.931 560.41 208.931 558.408C209.854 558.266 215.546 557.315 217.818 555.81C220.089 554.305 222.204 552.077 222.361 549.408C222.426 548.771 222.354 548.128 222.15 547.522C221.945 546.916 221.613 546.361 221.176 545.894C220.739 545.427 220.206 545.059 219.615 544.816C219.023 544.572 218.386 544.458 217.747 544.482Z" fill="#7A6EFF"/>
<g filter="url(#filter0_d_2005_778)">
<rect x="171.571" y="196.919" width="5.74427" height="40.0716" rx="2.87214" fill="white"/>
</g>
<g filter="url(#filter1_d_2005_778)">
<rect x="209.314" y="177.859" width="5.74427" height="58.7672" rx="2.87214" fill="white"/>
</g>
<g filter="url(#filter2_d_2005_778)">
<rect x="247.055" y="194.564" width="5.74427" height="42.4266" rx="2.87214" fill="white"/>
</g>
<g filter="url(#filter3_d_2005_778)">
<rect x="265.925" y="173.155" width="5.74427" height="63.4713" rx="2.87214" fill="white"/>
</g>
<g filter="url(#filter4_d_2005_778)">
<rect x="228.185" y="212.108" width="5.74427" height="24.8828" rx="2.87214" fill="white"/>
</g>
<rect x="190.443" y="156.119" width="5.74427" height="80.8718" rx="2.87214" fill="#962DFF"/>
<rect x="209.314" y="177.859" width="5.74427" height="59.1315" rx="2.87214" fill="#4A3AFF"/>
<rect x="228.185" y="212.108" width="5.74427" height="24.8832" rx="2.87214" fill="#962DFF"/>
<rect x="247.055" y="194.564" width="5.74427" height="42.4264" rx="2.87214" fill="#4A3AFF"/>
<rect x="265.927" y="172.796" width="5.74427" height="64.1944" rx="2.87214" fill="#962DFF"/>
<rect x="171.571" y="196.92" width="5.74427" height="40.0716" rx="2.87214" fill="#4A3AFF"/>
<defs>
<filter id="filter0_d_2005_778" x="166.841" y="192.19" width="15.2034" height="49.5309" filterUnits="userSpaceOnUse" color-interpolation-filters="sRGB">
<feFlood flood-opacity="0" result="BackgroundImageFix"/>
<feColorMatrix in="SourceAlpha" type="matrix" values="0 0 0 0 0 0 0 0 0 0 0 0 0 0 0 0 0 0 127 0" result="hardAlpha"/>
<feOffset/>
<feGaussianBlur stdDeviation="2.36478"/>
<feColorMatrix type="matrix" values="0 0 0 0 0.290196 0 0 0 0 0.227451 0 0 0 0 1 0 0 0 0.25 0"/>
<feBlend mode="normal" in2="BackgroundImageFix" result="effect1_dropShadow_2005_778"/>
<feBlend mode="normal" in="SourceGraphic" in2="effect1_dropShadow_2005_778" result="shape"/>
</filter>
<filter id="filter1_d_2005_778" x="204.584" y="173.13" width="15.2034" height="68.2262" filterUnits="userSpaceOnUse" color-interpolation-filters="sRGB">
<feFlood flood-opacity="0" result="BackgroundImageFix"/>
<feColorMatrix in="SourceAlpha" type="matrix" values="0 0 0 0 0 0 0 0 0 0 0 0 0 0 0 0 0 0 127 0" result="hardAlpha"/>
<feOffset/>
<feGaussianBlur stdDeviation="2.36478"/>
<feColorMatrix type="matrix" values="0 0 0 0 0.290196 0 0 0 0 0.227451 0 0 0 0 1 0 0 0 0.25 0"/>
<feBlend mode="normal" in2="BackgroundImageFix" result="effect1_dropShadow_2005_778"/>
<feBlend mode="normal" in="SourceGraphic" in2="effect1_dropShadow_2005_778" result="shape"/>
</filter>
<filter id="filter2_d_2005_778" x="242.325" y="189.835" width="15.2034" height="51.8859" filterUnits="userSpaceOnUse" color-interpolation-filters="sRGB">
<feFlood flood-opacity="0" result="BackgroundImageFix"/>
<feColorMatrix in="SourceAlpha" type="matrix" values="0 0 0 0 0 0 0 0 0 0 0 0 0 0 0 0 0 0 127 0" result="hardAlpha"/>
<feOffset/>
<feGaussianBlur stdDeviation="2.36478"/>
<feColorMatrix type="matrix" values="0 0 0 0 0.290196 0 0 0 0 0.227451 0 0 0 0 1 0 0 0 0.25 0"/>
<feBlend mode="normal" in2="BackgroundImageFix" result="effect1_dropShadow_2005_778"/>
<feBlend mode="normal" in="SourceGraphic" in2="effect1_dropShadow_2005_778" result="shape"/>
</filter>
<filter id="filter3_d_2005_778" x="261.196" y="168.426" width="15.2034" height="72.9303" filterUnits="userSpaceOnUse" color-interpolation-filters="sRGB">
<feFlood flood-opacity="0" result="BackgroundImageFix"/>
<feColorMatrix in="SourceAlpha" type="matrix" values="0 0 0 0 0 0 0 0 0 0 0 0 0 0 0 0 0 0 127 0" result="hardAlpha"/>
<feOffset/>
<feGaussianBlur stdDeviation="2.36478"/>
<feColorMatrix type="matrix" values="0 0 0 0 0.588235 0 0 0 0 0.176471 0 0 0 0 1 0 0 0 0.25 0"/>
<feBlend mode="normal" in2="BackgroundImageFix" result="effect1_dropShadow_2005_778"/>
<feBlend mode="normal" in="SourceGraphic" in2="effect1_dropShadow_2005_778" result="shape"/>
</filter>
<filter id="filter4_d_2005_778" x="221.383" y="205.307" width="19.3468" height="38.4854" filterUnits="userSpaceOnUse" color-interpolation-filters="sRGB">
<feFlood flood-opacity="0" result="BackgroundImageFix"/>
<feColorMatrix in="SourceAlpha" type="matrix" values="0 0 0 0 0 0 0 0 0 0 0 0 0 0 0 0 0 0 127 0" result="hardAlpha"/>
<feOffset/>
<feGaussianBlur stdDeviation="3.40064"/>
<feColorMatrix type="matrix" values="0 0 0 0 0.588235 0 0 0 0 0.176471 0 0 0 0 1 0 0 0 0.25 0"/>
<feBlend mode="normal" in2="BackgroundImageFix" result="effect1_dropShadow_2005_778"/>
<feBlend mode="normal" in="SourceGraphic" in2="effect1_dropShadow_2005_778" result="shape"/>
</filter>
</defs>
</svg>
