<svg id="SvgjsSvg1027" width="288" height="288" xmlns="http://www.w3.org/2000/svg" version="1.1" xmlns:xlink="http://www.w3.org/1999/xlink" xmlns:svgjs="http://svgjs.com/svgjs"><defs id="SvgjsDefs1028"></defs><g id="SvgjsG1029"><svg xmlns="http://www.w3.org/2000/svg" viewBox="0 0 520 520" width="288" height="288"><path fill="#9983f7" d="M385.002 92.5c13.81 0 25 11.19 25 25s-11.19 25-25 25-25-11.19-25-25 11.19-25 25-25z" class="color9983f7 svgShape"></path><circle cx="160.002" cy="387.5" r="35" fill="#9983f7" class="color9983f7 svgShape"></circle><path fill="#ffffff" d="M367.973 254.61c10.3 10.3 10.3 26.99 0 37.28-10.35 10.35-27.017 10.265-37.28 0l-64.39-64.39c-10.3-10.29-10.3-26.98 0-37.28 10.284-10.285 26.979-10.301 37.279 0l61.871 61.87 2.52 2.52zm-114.27 5.53c10.258 10.26 10.327 26.974 0 37.28-10.29 10.3-26.99 10.3-37.28 0l-64.39-64.39a26.275 26.275 0 0 1-7.73-18.64c0-6.74 2.58-13.49 7.73-18.64 10.29-10.29 26.98-10.29 37.28 0l64.39 64.39z" class="colorfff svgShape"></path><path fill="#9983f7" d="M469.643 295.28c13.58 13.569 20.359 31.359 20.359 49.14 0 17.79-6.779 35.58-20.359 49.15-27.141 27.14-71.141 27.14-98.28 0l-47.45-47.45c-20.539-20.54-25.52-50.74-14.97-75.98l19.23 19.23c-2.359 14.04 1.86 28.97 12.69 39.8l47.45 47.45c8.891 8.89 20.54 13.34 32.19 13.34 11.66 0 23.31-4.45 32.201-13.34 17.779-17.78 17.779-46.61 0-64.39l-47.451-47.45c-10.83-10.83-25.76-15.05-39.799-12.691l-19.23-19.23c25.24-10.55 55.439-5.57 75.98 14.98l47.439 47.441zM196.092 141.53c20.54 20.54 25.52 50.73 14.97 75.97l-19.23-19.23c2.36-14.04-1.86-28.97-12.69-39.8l-47.45-47.45c-17.78-17.78-46.61-17.78-64.39 0-8.89 8.9-13.34 20.55-13.34 32.2 0 11.66 4.45 23.31 13.34 32.2l47.45 47.44c10.83 10.84 25.76 15.06 39.8 12.69l19.23 19.23c-25.24 10.55-55.44 5.57-75.98-14.97l-47.45-47.45c-27.14-27.14-27.14-71.14 0-98.28 13.57-13.57 31.36-20.36 49.15-20.36 17.78 0 35.57 6.79 49.14 20.36l47.45 47.45z" class="color9bc9ff svgShape"></path><circle cx="472.502" cy="155" r="7.5" fill="#6a49f2" class="color6a49f2 svgShape"></circle><circle cx="397.502" cy="460" r="7.5" fill="#6a49f2" class="color6a49f2 svgShape"></circle><circle cx="347.502" cy="60" r="7.5" fill="#6a49f2" class="color6a49f2 svgShape"></circle><circle cx="277.502" cy="390" r="7.5" fill="#6a49f2" class="color6a49f2 svgShape"></circle><circle cx="232.502" cy="90" r="7.5" fill="#6a49f2" class="color6a49f2 svgShape"></circle><circle cx="82.502" cy="435" r="7.5" fill="#6a49f2" class="color6a49f2 svgShape"></circle><circle cx="67.502" cy="285" r="7.5" fill="#6a49f2" class="color6a49f2 svgShape"></circle><path fill="#6a49f2" d="M420.503 418.89c-19.079.002-38.151-7.26-52.677-21.784l-47.449-47.45c-21.459-21.459-27.758-53.428-16.048-81.444a5.002 5.002 0 0 1 9.227 3.857c-10.14 24.258-4.687 51.938 13.892 70.517l47.45 47.45c12.571 12.571 29.09 18.857 45.604 18.859 16.517.001 33.03-6.285 45.605-18.859 12.186-12.177 18.895-28.376 18.895-45.615 0-17.233-6.709-33.429-18.894-45.602l-47.441-47.442c-18.577-18.587-46.257-24.044-70.517-13.902a5 5 0 0 1-3.856-9.227c28.019-11.711 59.988-5.408 81.444 16.059l47.438 47.44C487.25 305.809 495 324.517 495 344.422c0 19.911-7.75 38.623-21.825 52.688-14.519 14.517-33.599 21.778-52.672 21.78z" class="color6a49f2 svgShape"></path><path fill="#6a49f2" d="M420.502 394.96c-13.49 0-26.178-5.258-35.725-14.805l-47.451-47.45c-11.529-11.529-16.795-28.039-14.084-44.164a4.999 4.999 0 1 1 9.861 1.659c-2.176 12.94 2.047 26.188 11.295 35.436l47.449 47.45c7.658 7.657 17.835 11.875 28.654 11.875 10.826 0 21.007-4.218 28.665-11.875 7.655-7.655 11.87-17.834 11.87-28.66s-4.215-21.004-11.87-28.659l-47.45-47.45c-9.248-9.247-22.496-13.469-35.436-11.295a5 5 0 1 1-1.657-9.861c16.125-2.713 32.634 2.555 44.164 14.086l47.45 47.45c9.543 9.543 14.799 22.232 14.799 35.729 0 13.498-5.256 26.188-14.799 35.73-9.546 9.546-22.237 14.804-35.735 14.804z" class="color6a49f2 svgShape"></path><path fill="#6a49f2" d="M349.332 304.62c-8.371 0-16.246-3.266-22.176-9.195l-64.39-64.389c-5.925-5.92-9.19-13.794-9.19-22.172 0-8.376 3.264-16.253 9.19-22.179 5.923-5.923 13.798-9.185 22.176-9.185s16.253 3.262 22.176 9.185l64.39 64.39c5.926 5.926 9.19 13.803 9.19 22.18 0 8.377-3.264 16.252-9.191 22.173-5.929 5.926-13.804 9.192-22.175 9.192zm-64.39-117.12a21.22 21.22 0 0 0-15.104 6.256 21.227 21.227 0 0 0-6.261 15.108 21.206 21.206 0 0 0 6.259 15.099l64.392 64.391c4.04 4.041 9.405 6.267 15.105 6.267 5.7 0 11.064-2.226 15.105-6.266a21.207 21.207 0 0 0 6.26-15.101 21.226 21.226 0 0 0-6.26-15.108l-64.391-64.39a21.223 21.223 0 0 0-15.105-6.256zm-138.083 77.706c-19.345 0-38.299-7.567-52.593-21.86l-47.45-47.45c-14.07-14.07-21.819-32.777-21.819-52.675 0-19.898 7.749-38.605 21.819-52.676C60.89 76.471 79.601 68.72 99.502 68.72c19.895 0 38.602 7.751 52.676 21.824l47.45 47.45c21.457 21.457 27.756 53.422 16.048 81.434a5.002 5.002 0 0 1-9.227-3.857c10.138-24.254 4.685-51.93-13.893-70.506l-47.45-47.45c-12.184-12.184-28.38-18.895-45.604-18.895-17.23 0-33.43 6.711-45.614 18.896-12.182 12.182-18.891 28.378-18.891 45.604 0 17.227 6.708 33.422 18.891 45.604l47.45 47.45c18.579 18.579 46.26 24.032 70.516 13.892a5 5 0 0 1 3.856 9.226c-9.355 3.912-19.152 5.814-28.851 5.814z" class="color6a49f2 svgShape"></path><path fill="#6a49f2" d="M146.979 241.185c-13.304.001-26.233-5.252-35.763-14.791l-47.448-47.438c-9.547-9.548-14.805-22.239-14.805-35.736 0-13.487 5.257-26.177 14.802-35.734 19.705-19.703 51.762-19.702 71.463-.002l47.451 47.45c11.53 11.529 16.795 28.04 14.085 44.164a5 5 0 1 1-9.861-1.657c2.175-12.941-2.047-26.189-11.295-35.436l-47.45-47.45c-15.803-15.803-41.517-15.803-57.319 0-7.657 7.666-11.875 17.847-11.875 28.664 0 10.826 4.217 21.006 11.875 28.664l47.45 47.439c9.249 9.258 22.494 13.481 35.433 11.296a5 5 0 0 1 1.664 9.861 50.38 50.38 0 0 1-8.407.706z" class="color6a49f2 svgShape"></path><path fill="#6a49f2" d="M235.063 310.145c-8.38 0-16.256-3.264-22.177-9.19l-64.389-64.389c-5.929-5.929-9.194-13.805-9.194-22.175 0-8.371 3.265-16.247 9.194-22.176 5.921-5.921 13.795-9.182 22.172-9.182 8.376 0 16.252 3.26 22.178 9.18l64.392 64.391c5.922 5.923 9.184 13.799 9.184 22.176 0 8.389-3.262 16.266-9.188 22.179-5.917 5.922-13.793 9.186-22.172 9.186zm-64.394-117.112a21.217 21.217 0 0 0-15.101 6.253c-4.041 4.04-6.266 9.404-6.266 15.105 0 5.7 2.225 11.064 6.266 15.104l64.39 64.391c4.034 4.037 9.398 6.26 15.105 6.26s11.071-2.223 15.103-6.259c4.037-4.028 6.257-9.392 6.257-15.105a21.226 21.226 0 0 0-6.255-15.105l-64.39-64.389a21.236 21.236 0 0 0-15.109-6.255zM385.002 147.5c-16.541 0-30-13.458-30-30s13.459-30 30-30c16.543 0 30 13.458 30 30s-13.457 30-30 30zm0-50c-11.027 0-20 8.972-20 20s8.973 20 20 20c11.028 0 20-8.972 20-20s-8.972-20-20-20zm-225 330c-22.056 0-40-17.944-40-40s17.944-40 40-40 40 17.944 40 40-17.943 40-40 40zm0-70c-16.542 0-30 13.458-30 30s13.458 30 30 30 30-13.458 30-30-13.458-30-30-30z" class="color6a49f2 svgShape"></path></svg></g></svg>