<svg id="SvgjsSvg1001" width="360" height="360" xmlns="http://www.w3.org/2000/svg" version="1.1" xmlns:xlink="http://www.w3.org/1999/xlink" xmlns:svgjs="http://svgjs.com/svgjs"><defs id="SvgjsDefs1002"></defs><g id="SvgjsG1008"><svg xmlns="http://www.w3.org/2000/svg" viewBox="0 0 800 800" width="360" height="360"><path fill="#e9efff" d="M383.76 671.33c0-8.94 59.27-16.19 132.38-16.19s132.38 7.25 132.38 16.19-59.27 16.19-132.38 16.19S383.76 680.27 383.76 671.33zM174 646.23c0-4.25 51-7.69 113.82-7.69s113.83 3.44 113.83 7.69-51 7.7-113.83 7.7S174 650.48 174 646.23z" class="svgShape colore9efff-0 selectable"></path><path fill="#807dfb" d="M561,529.06c-12.51,34.88,10,61.25,52.7,70.14C618.68,565.47,601.3,525.33,561,529.06Z" class="svgShape color807dfb-1 selectable"></path><path fill="#423eaf" d="M177.44,382.4c-42.64,24.16-82.1.79-103.33-52.89C117,315.39,173.21,329,177.44,382.4Z" class="svgShape color423eaf-2 selectable"></path><path fill="none" stroke="#362e94" stroke-linecap="round" stroke-linejoin="round" stroke-width="2" d="M177.44,382.4c-17.78-10.43-63.85-30.07-91-45.82" class="svgStroke colorStroke362e94-3 selectable"></path><path fill="#ced3f8" d="M555.23,501.5c-9.22-10.26-23.49-43.08-1-63.27,10.16-9.14,13.37-10.94,18.84-10.37,3.56.38,6.37,2.51,8.85.48,4.52-3.69-9.31-20.62,5.82-35.62S616,386,620,381.87s-.14-12.1,9.13-16.3,16.47,10.89,29.13,7.14c13.16-3.9,36.42-5.54,40.13,7s-6.61,15-9.75,23.37,4.79,32.84-14.66,38.61-27.34,5-29.12,30.2S621,509.38,608.81,507.37s-8.94,4.38-2.57,7.83-3.33,9-12.31,8S566.8,514.39,555.23,501.5Z" class="svgShape colorced3f8-4 selectable"></path><path fill="none" stroke="#dde2f8" stroke-linecap="round" stroke-linejoin="round" stroke-width="2" d="M551.69 507.45c29.66-59.1 81.86-100.4 125-118.91M643.11 406.64c0-3.23-2-16.79-6.11-23.73M651.7 401.32c4.86 1.1 15.42 6.84 18.15 8.93M609.34 432.59c.34-4.87.5-14.71-7-27.17M622 421.84c4.58 0 18.79 6 24.73 9.21M586 456.37c6.72.48 13.71 5.11 18.68 7.81M574.27 471c1.29-6.38-.81-18.53-4.37-26.86" class="svgStroke colorStrokedde2f8-5 selectable"></path><path fill="#e9edf7" d="M550.13,510.56c17.5,52,67.86,62,125.67,33.13C650.63,499.9,593.58,469.2,550.13,510.56Z" class="svgShape colore9edf7-6 selectable"></path><path fill="none" stroke="#ced3f8" stroke-linecap="round" stroke-linejoin="round" stroke-width="2" d="M550.13,510.56c22.62,4.6,75.7,22.65,110.09,29.8" class="svgStroke colorStrokeced3f8-7 selectable"></path><path fill="#e9edf7" d="M634.89,207.59c13.92,2.67,20.87-8.76,24.41-15.88C655,191.21,637.37,190.24,634.89,207.59Z" class="svgShape colore9edf7-8 selectable"></path><path fill="none" stroke="#e9edf7" stroke-linecap="round" stroke-linejoin="round" stroke-width="2" d="M545.84,295c14.58-25.66,46.57-62.38,90.83-88.67" class="svgStroke colorStrokee9edf7-9 selectable"></path><path fill="#e9edf7" d="M551.14 275.15c3.5-28.42-16.22-35.73-31-41.9C519.69 242 515.85 272.49 551.14 275.15zM567.42 253.06c8.4-21.39-5.48-31-15.77-38.78C549.58 221 540.51 244 567.42 253.06zM589.56 233c11.32-16.19 1.67-27-5.37-35.58C581.1 202.65 568.91 220 589.56 233zM612.47 215.41c9.56-7.7 5.67-15.84 2.95-22.16C612.68 195.83 602.4 204.06 612.47 215.41zM564.49 281.86c21.26-13.65 34.61-.76 45.19 8.66C602.86 294.21 580.1 308.91 564.49 281.86zM582.64 258.17c16.29-14.48 29.39-5.29 39.67 1.32C617 263.54 599.57 279.13 582.64 258.17zM608.21 233.52c13.43-6.43 20.3 2.08 25.8 8.37C629.75 243.54 615.37 250.48 608.21 233.52zM626.61 218.13c7-5.12 11.85-1 15.67 2C640 221.56 632.52 227.08 626.61 218.13z" class="svgShape colore9edf7-10 selectable"></path><path fill="#6b67e9" d="M177,380.53c9.88,35.7-14.51,60.34-57.77,66C116.76,412.55,137.07,373.81,177,380.53Z" class="svgShape color6b67e9-11 selectable"></path><g><path fill="#ced3f8" d="M301.12,500.33a2.76,2.76,0,0,0,2.76-2.5c.15-1.63.23-3.28.23-4.94s-.08-3.31-.23-4.94a2.76,2.76,0,0,0-2.76-2.5h-4.26a2.76,2.76,0,0,1-2.71-2.21c-.31-1.42-.69-2.83-1.13-4.2a2.78,2.78,0,0,1,1.25-3.26l3.7-2.14a2.78,2.78,0,0,0,1.14-3.55,54.42,54.42,0,0,0-4.95-8.54,2.76,2.76,0,0,0-3.64-.79l-3.7,2.13a2.76,2.76,0,0,1-3.44-.55q-1.47-1.6-3.08-3.08a2.76,2.76,0,0,1-.55-3.44l2.13-3.7a2.76,2.76,0,0,0-.79-3.64,54.42,54.42,0,0,0-8.54-5,2.77,2.77,0,0,0-3.55,1.14l-2.14,3.7a2.78,2.78,0,0,1-3.26,1.25c-1.37-.44-2.78-.82-4.2-1.13a2.76,2.76,0,0,1-2.21-2.71v-4.26a2.76,2.76,0,0,0-2.5-2.76c-1.63-.15-3.28-.23-4.94-.23s-3.31.08-4.94.23a2.76,2.76,0,0,0-2.5,2.76v4.26a2.77,2.77,0,0,1-2.21,2.71c-1.42.31-2.83.69-4.2,1.13a2.78,2.78,0,0,1-3.26-1.25l-2.14-3.7a2.77,2.77,0,0,0-3.55-1.14,54.51,54.51,0,0,0-8.55,5,2.77,2.77,0,0,0-.78,3.64l2.13,3.7a2.76,2.76,0,0,1-.55,3.44q-1.6,1.47-3.08,3.08a2.76,2.76,0,0,1-3.44.55l-3.7-2.13a2.76,2.76,0,0,0-3.64.79,53.64,53.64,0,0,0-5,8.54,2.77,2.77,0,0,0,1.14,3.55l3.7,2.14a2.76,2.76,0,0,1,1.24,3.26c-.43,1.37-.81,2.78-1.12,4.2a2.76,2.76,0,0,1-2.71,2.21h-4.26a2.75,2.75,0,0,0-2.76,2.5c-.15,1.63-.23,3.28-.23,4.94s.08,3.31.23,4.94a2.75,2.75,0,0,0,2.76,2.5h4.26a2.76,2.76,0,0,1,2.71,2.21c.31,1.42.69,2.83,1.12,4.2a2.76,2.76,0,0,1-1.24,3.26l-3.7,2.14a2.77,2.77,0,0,0-1.14,3.55,53.74,53.74,0,0,0,5,8.55A2.77,2.77,0,0,0,209,525l3.7-2.13a2.76,2.76,0,0,1,3.44.55q1.47,1.6,3.08,3.08a2.76,2.76,0,0,1,.55,3.44l-2.13,3.7a2.77,2.77,0,0,0,.78,3.64,54.51,54.51,0,0,0,8.55,5,2.77,2.77,0,0,0,3.55-1.14l2.14-3.7a2.76,2.76,0,0,1,3.26-1.24c1.37.43,2.78.81,4.2,1.12a2.77,2.77,0,0,1,2.21,2.71v4.26a2.75,2.75,0,0,0,2.5,2.76c1.63.15,3.27.23,4.94.23s3.31-.08,4.94-.23a2.75,2.75,0,0,0,2.5-2.76V540a2.76,2.76,0,0,1,2.21-2.71c1.42-.31,2.83-.69,4.2-1.12a2.76,2.76,0,0,1,3.26,1.24l2.14,3.7a2.77,2.77,0,0,0,3.55,1.14,54.42,54.42,0,0,0,8.54-5,2.76,2.76,0,0,0,.79-3.64l-2.13-3.7a2.76,2.76,0,0,1,.55-3.44q1.6-1.47,3.08-3.08a2.76,2.76,0,0,1,3.44-.55l3.7,2.13a2.77,2.77,0,0,0,3.64-.78,54.51,54.51,0,0,0,4.95-8.55,2.78,2.78,0,0,0-1.14-3.55l-3.7-2.14a2.78,2.78,0,0,1-1.25-3.26c.44-1.37.82-2.78,1.13-4.2a2.76,2.76,0,0,1,2.71-2.21ZM249.75,514a21.12,21.12,0,1,1,21.12-21.12A21.13,21.13,0,0,1,249.75,514Z" class="svgShape colorced3f8-13 selectable"></path><path fill="#bbc0e6" d="M249.75,452.82a40.07,40.07,0,1,0,40.07,40.07A40.07,40.07,0,0,0,249.75,452.82Zm0,61.19a21.12,21.12,0,1,1,21.12-21.12A21.13,21.13,0,0,1,249.75,514Z" class="svgShape colorbbc0e6-14 selectable"></path><path fill="#ced3f8" d="M249.75 465.28a27.61 27.61 0 1027.61 27.61A27.61 27.61 0 00249.75 465.28zm0 48.73a21.12 21.12 0 1121.12-21.12A21.13 21.13 0 01249.75 514zM449.36 192.27a1.79 1.79 0 001.79-1.62c.1-1.05.15-2.12.15-3.2s-.05-2.14-.15-3.19a1.79 1.79 0 00-1.79-1.63H446.6a1.81 1.81 0 01-1.76-1.43c-.2-.92-.44-1.83-.72-2.72a1.79 1.79 0 01.8-2.11l2.4-1.38a1.81 1.81 0 00.74-2.3 35.83 35.83 0 00-3.21-5.54 1.79 1.79 0 00-2.35-.51L440.1 168a1.8 1.8 0 01-2.23-.35c-.63-.7-1.3-1.36-2-2a1.79 1.79 0 01-.36-2.23l1.38-2.39a1.79 1.79 0 00-.51-2.36 34.89 34.89 0 00-5.53-3.2 1.79 1.79 0 00-2.3.73l-1.39 2.4a1.79 1.79 0 01-2.11.8c-.89-.28-1.8-.52-2.72-.72a1.81 1.81 0 01-1.43-1.76v-2.76a1.8 1.8 0 00-1.62-1.79c-1.06-.09-2.12-.14-3.2-.14s-2.14.05-3.2.14a1.8 1.8 0 00-1.62 1.79v2.76a1.81 1.81 0 01-1.43 1.76c-.92.2-1.83.44-2.72.72a1.79 1.79 0 01-2.11-.8l-1.39-2.4a1.79 1.79 0 00-2.3-.73 34.89 34.89 0 00-5.53 3.2 1.79 1.79 0 00-.51 2.36l1.38 2.39a1.79 1.79 0 01-.36 2.23c-.69.64-1.36 1.3-2 2a1.8 1.8 0 01-2.23.35l-2.4-1.38a1.79 1.79 0 00-2.35.51 35.83 35.83 0 00-3.21 5.54 1.81 1.81 0 00.74 2.3l2.4 1.38a1.79 1.79 0 01.8 2.11c-.28.89-.52 1.8-.72 2.72a1.81 1.81 0 01-1.76 1.43h-2.76a1.79 1.79 0 00-1.79 1.63c-.1 1.05-.15 2.11-.15 3.19s.05 2.15.15 3.2a1.79 1.79 0 001.79 1.62h2.76a1.81 1.81 0 011.76 1.43c.2.92.44 1.83.72 2.72a1.79 1.79 0 01-.8 2.11l-2.4 1.39a1.8 1.8 0 00-.74 2.3 35.27 35.27 0 003.21 5.53 1.78 1.78 0 002.35.51l2.4-1.38a1.8 1.8 0 012.23.36c.63.69 1.3 1.36 2 2a1.79 1.79 0 01.36 2.23l-1.38 2.4a1.79 1.79 0 00.51 2.36 35.68 35.68 0 005.53 3.2 1.79 1.79 0 002.3-.74l1.39-2.39a1.79 1.79 0 012.11-.81c.89.28 1.8.53 2.72.73a1.8 1.8 0 011.43 1.75v2.76a1.79 1.79 0 001.62 1.79c1.06.1 2.12.15 3.2.15s2.14 0 3.2-.15a1.79 1.79 0 001.62-1.79V218a1.8 1.8 0 011.43-1.75c.92-.2 1.83-.45 2.72-.73a1.79 1.79 0 012.11.81l1.39 2.39a1.79 1.79 0 002.3.74 35.68 35.68 0 005.53-3.2 1.79 1.79 0 00.51-2.36l-1.38-2.4a1.79 1.79 0 01.36-2.23c.69-.63 1.36-1.3 2-2a1.8 1.8 0 012.23-.36l2.4 1.38a1.78 1.78 0 002.35-.51 35.27 35.27 0 003.21-5.53 1.8 1.8 0 00-.74-2.3l-2.4-1.39a1.79 1.79 0 01-.8-2.11c.28-.89.52-1.8.72-2.72a1.81 1.81 0 011.76-1.43zm-33.27 8.86a13.68 13.68 0 1113.68-13.68A13.68 13.68 0 01416.09 201.13z" class="svgShape colorced3f8-15 selectable"></path><path fill="#bbc0e6" d="M416.09,169.43a18,18,0,1,0,18,18A18,18,0,0,0,416.09,169.43Zm0,31.7a13.68,13.68,0,1,1,13.68-13.68A13.68,13.68,0,0,1,416.09,201.13Z" class="svgShape colorbbc0e6-16 selectable"></path><path fill="none" stroke="#bbc0e6" stroke-linecap="round" stroke-linejoin="round" d="M406.9 209.22a23.63 23.63 0 019.19-45.39M439.71 187.45a23.62 23.62 0 01-23.62 23.62" class="svgStroke colorStrokebbc0e6-17 selectable"></path></g><g><rect width="256.52" height="303.27" x="159.57" y="189.62" fill="#dde2f8" rx="9.89" class="svgShape colordde2f8-19 selectable"></rect><rect width="279.26" height="250.17" x="148.2" y="225" fill="#fff" rx="6.72" transform="rotate(90 287.83 350.09)" class="svgShape colorffffff-20 selectable"></rect><rect width="18.68" height="3.52" x="256.65" y="198.33" fill="#fff" class="svgShape colorffffff-21 selectable"></rect><rect width="18.68" height="3.52" x="278.49" y="198.33" fill="#fff" class="svgShape colorffffff-22 selectable"></rect><rect width="18.68" height="3.52" x="300.34" y="198.33" fill="#fff" class="svgShape colorffffff-23 selectable"></rect></g><g><line x1="294.63" x2="294.63" y1="457.35" y2="454.35" fill="none" stroke="#ced3f8" stroke-linecap="round" stroke-linejoin="round" stroke-width="2" class="svgStroke colorStrokeced3f8-25 selectable"></line><line x1="294.63" x2="294.63" y1="448.85" y2="407.6" fill="none" stroke="#ced3f8" stroke-dasharray="5.5 5.5" stroke-linecap="round" stroke-linejoin="round" stroke-width="2" class="svgStroke colorStrokeced3f8-26 selectable"></line><line x1="294.63" x2="294.63" y1="404.85" y2="401.85" fill="none" stroke="#ced3f8" stroke-linecap="round" stroke-linejoin="round" stroke-width="2" class="svgStroke colorStrokeced3f8-27 selectable"></line><line x1="256.58" x2="258.01" y1="457.35" y2="454.71" fill="none" stroke="#ced3f8" stroke-linecap="round" stroke-linejoin="round" stroke-width="2" class="svgStroke colorStrokeced3f8-28 selectable"></line><line x1="261.03" x2="283.64" y1="449.13" y2="407.28" fill="none" stroke="#ced3f8" stroke-dasharray="6.34 6.34" stroke-linecap="round" stroke-linejoin="round" stroke-width="2" class="svgStroke colorStrokeced3f8-29 selectable"></line><line x1="285.15" x2="286.58" y1="404.49" y2="401.85" fill="none" stroke="#ced3f8" stroke-linecap="round" stroke-linejoin="round" stroke-width="2" class="svgStroke colorStrokeced3f8-30 selectable"></line><line x1="332.68" x2="331.25" y1="457.35" y2="454.71" fill="none" stroke="#ced3f8" stroke-linecap="round" stroke-linejoin="round" stroke-width="2" class="svgStroke colorStrokeced3f8-31 selectable"></line><line x1="328.24" x2="305.62" y1="449.13" y2="407.28" fill="none" stroke="#ced3f8" stroke-dasharray="6.34 6.34" stroke-linecap="round" stroke-linejoin="round" stroke-width="2" class="svgStroke colorStrokeced3f8-32 selectable"></line><line x1="304.11" x2="302.69" y1="404.49" y2="401.85" fill="none" stroke="#ced3f8" stroke-linecap="round" stroke-linejoin="round" stroke-width="2" class="svgStroke colorStrokeced3f8-33 selectable"></line><rect width="111.69" height="22.62" x="258.27" y="234.93" fill="#9f9cff" class="svgShape color9f9cff-34 selectable"></rect><rect width="70.11" height="22.62" x="258.27" y="269.88" fill="#9f9cff" class="svgShape color9f9cff-35 selectable"></rect><rect width="111.69" height="22.62" x="258.27" y="304.84" fill="#9f9cff" class="svgShape color9f9cff-36 selectable"></rect><rect width="76.1" height="22.62" x="256.58" y="390.54" fill="#ffd03e" class="svgShape colorffd03e-37 selectable"></rect><path fill="#9f9cff" d="M204.33,280.32a6.81,6.81,0,1,1,6.81,6.81A6.81,6.81,0,0,1,204.33,280.32Z" class="svgShape color9f9cff-38 selectable"></path><path fill="none" stroke="#9f9cff" stroke-miterlimit="10" stroke-width="2" d="M258.27,246.24H242.59a6.19,6.19,0,0,0-6.2,6.2V310a6.2,6.2,0,0,0,6.2,6.2h15.68" class="svgStroke colorStroke9f9cff-39 selectable"></path><line x1="214.5" x2="258.27" y1="280.32" y2="280.32" fill="none" stroke="#9f9cff" stroke-miterlimit="10" stroke-width="2" class="svgStroke colorStroke9f9cff-40 selectable"></line><circle cx="294.63" cy="457.35" r="10.15" fill="#9f9cff" class="svgShape color9f9cff-41 selectable"></circle><circle cx="256.58" cy="457.35" r="10.15" fill="#9f9cff" class="svgShape color9f9cff-42 selectable"></circle><circle cx="332.68" cy="457.35" r="10.15" fill="#9f9cff" class="svgShape color9f9cff-43 selectable"></circle><path fill="none" stroke="#ced3f8" stroke-dasharray="6" stroke-linecap="round" stroke-linejoin="round" stroke-width="2" d="M332.68,401.85h13.64a7.45,7.45,0,0,0,7.45-7.45V327.46" class="svgStroke colorStrokeced3f8-44 selectable"></path><path fill="#423eaf" d="M350.09,327.46a3.68,3.68,0,1,1,3.68,3.68A3.68,3.68,0,0,1,350.09,327.46Z" class="svgShape color423eaf-45 selectable"></path><path fill="none" stroke="#fff" stroke-linecap="round" stroke-linejoin="round" stroke-width="2" d="M267.75,317.56c3.7-3,7.8-4.63,12.69-.27,4.05,3.62,6.87,1.61,10.57-.56s7.58-3.13,13.22.79,12-3,15.5-5.79" class="svgStroke colorStrokeffffff-46 selectable"></path><rect width="22.62" height="22.62" x="199.83" y="390.54" fill="#dde2f8" class="svgShape colordde2f8-47 selectable"></rect><rect width="22.62" height="22.62" x="199.83" y="349.38" fill="#dde2f8" class="svgShape colordde2f8-48 selectable"></rect><rect width="22.62" height="22.62" x="199.83" y="308.22" fill="#dde2f8" class="svgShape colordde2f8-49 selectable"></rect><line x1="211.14" x2="211.14" y1="293.3" y2="390.54" fill="none" stroke="#dde2f8" stroke-linecap="round" stroke-linejoin="round" stroke-width="2" class="svgStroke colorStrokedde2f8-50 selectable"></line></g><g><path fill="#e8c4bc" d="M330.12,297.73c1.51,0,4.32-1.61,5.91-1.91,2.82.15,8.29.64,9.76-1.32s2.94-5.13-.9-5.84-7.52-1.32-9.73,1.68S330.12,297.73,330.12,297.73Z" class="svgShape colore8c4bc-52 selectable"></path><path fill="#5652cc" d="M355.07,281.67l-30.68,28.4a2.24,2.24,0,0,1-1,.54l-3.87,1.12L321,308a2.36,2.36,0,0,1,.61-.91l30.68-28.41a1,1,0,0,1,1.34.05l1.52,1.65A.94.94,0,0,1,355.07,281.67Z" class="svgShape color5652cc-53 selectable"></path><path fill="#f8d8d0" d="M352.5,304.37c-1.3-1.73-2.86-1.07-5.13-.93a19.78,19.78,0,0,1-8.44-1c-2.66-1-7,.95-8.66-.63s1.89-3.78,4.94-4.15c3.93-.48,7.76,0,8.61-.53s.85-4.59.85-5.8l4.34-4c2.47,1.63,9.41,10.3,10.78,12.19S352.5,304.37,352.5,304.37Z" class="svgShape colorf8d8d0-54 selectable"></path><path fill="#f8d8d0" d="M345.48,284.9c-2.3-.45-9-.24-10.66,1.11s-10,14.46-10,15.16,2.28,1.56,4-.85,4.79-5.82,4.79-5.82,3.13-4.05,3.85-4.31a18.52,18.52,0,0,1,3-.64Z" class="svgShape colorf8d8d0-55 selectable"></path><path fill="#dde2f8" d="M413.4,329.54c-8.35,1.7-52.31-30.86-52.31-30.86a91.17,91.17,0,0,0-9.58,6.44c5.92,11.68,54,55.2,66.22,52.9,13.72-2.58,30.55-15.49,41-24.57-4.23-6.11-14.79-19.92-20.25-27C429.67,317.71,420.07,328.19,413.4,329.54Z" class="svgShape colordde2f8-56 selectable"></path><path fill="#e19100" d="M457.08,281c-4.08,5.6-11.05,15.82-18.59,25.46,5.46,7.1,16,20.91,20.25,27,6-5.2,9.89-9.14,9.89-9.14Z" class="svgShape colore19100-57 selectable"></path><path fill="#fcba06" d="M546.35,270.68l-.28-.18a3.4,3.4,0,0,0-.29-.26c-11.36-7.48-27.62-12-37.24-10.57s-23.7,5.54-23.7,5.54c-5.64.59-22.37,5.42-27.76,15.76-6,11.57,14.16,70.35,13.12,104.07h83.51c.3-11.7-3.57-38.84-1.92-69.16,1,.59,3.44,2.33,4.36,2.88,2.1-6.74,9.9-16.11,12.28-22.94C562.4,285.84,553.6,276,546.35,270.68Z" class="svgShape colorfcba06-58 selectable"></path><path fill="#f2cfc8" d="M485.39,255.3c-.09,3.47-.37,9.69-.37,9.69,3.28,2.69,13.57,1.7,21.11-4.93-1.66-6.09-3.82-18.81-3.82-18.81Z" class="svgShape colorf2cfc8-59 selectable"></path><path fill="#f8d8d0" d="M465,225.86c1.13,6.56,4,26.34,10.09,31.58,5,4.3,11.44,2.93,20-4.08s2.33-25.05,1.69-30.69C495.84,213.73,463.39,216.36,465,225.86Z" class="svgShape colorf8d8d0-60 selectable"></path><path fill="#362e94" d="M461.08 219.32c-3.5-2.21-14.19-12.31-4.71-10-2.89-3.17-.46-13.91 9.84-4.52s18 3.25 18 3.25c-3.2-1.11-8.33-10 4-3.67s16.85 9.57 15.11 18.4 4.26 27.79 1.57 31.1c-1.26 1.56-3.92-1.46-5-9.32-1-7.43-5.68-2.38-5.94-8.67a2.25 2.25 0 001.88.95c1.37-.07 2.41-1.59 2.31-3.39s-1.29-3.19-2.66-3.12a2.18 2.18 0 00-1.5.8c.08-5.67-.08-10.5-3.38-11.62-4.09-1.39-22 8.3-28.92 4.95S456.77 218.5 461.08 219.32zM470.2 385c-.67 12.27-16.85 195.38-16.85 261.61H465.1c6.61-16.42 62.33-230.38 66.79-261.61z" class="svgShape color362e94-61 selectable"></path><path fill="#f0ccc0" d="M465.1,651v-4.3H453.35a28.71,28.71,0,0,1-1.35,7.82C455.06,655.64,459.53,652.61,465.1,651Z" class="svgShape colorf0ccc0-62 selectable"></path><path fill="#20196f" d="M465.1,651c-5.57,1.66-10,4.69-13.1,3.52-1.61,1.17-25.45,9.74-27.87,11.4s-2.12,4.34.51,4.34c3.84,0,35.48-1.4,35.48-1.4.65.7,1.17,1.4,1.17,1.4h7.23C470.68,666.47,470.09,655.25,465.1,651Z" class="svgShape color20196f-63 selectable"></path><path fill="#423eaf" d="M553.71,385c.67,12.27,20.1,195.38,20.1,261.61H562.06c-6.61-16.42-62.33-230.38-66.79-261.61Z" class="svgShape color423eaf-64 selectable"></path><path fill="#f0ccc0" d="M562.06,651v-4.3h11.75a28.71,28.71,0,0,0,1.35,7.82C572.1,655.64,567.63,652.61,562.06,651Z" class="svgShape colorf0ccc0-65 selectable"></path><path fill="#20196f" d="M562.06,651c5.57,1.66,10,4.69,13.1,3.52,1.61,1.17,25.45,9.74,27.87,11.4s2.12,4.34-.51,4.34c-3.84,0-35.48-1.4-35.48-1.4-.65.7-1.17,1.4-1.17,1.4h-7.23C556.48,666.47,557.07,655.25,562.06,651Z" class="svgShape color20196f-66 selectable"></path><path fill="#5652cc" d="M603.3,358.11H528.92a3.75,3.75,0,0,1-3.78-4.59l10-56.5a5.71,5.71,0,0,1,5.39-4.59h74.38a3.75,3.75,0,0,1,3.78,4.59l-10,56.5A5.71,5.71,0,0,1,603.3,358.11Z" class="svgShape color5652cc-67 selectable"></path><path fill="#807dfb" d="M605.21,358.11H530.83a3.75,3.75,0,0,1-3.78-4.59L537,297a5.73,5.73,0,0,1,5.4-4.59h74.38a3.74,3.74,0,0,1,3.77,4.59l-10,56.5A5.72,5.72,0,0,1,605.21,358.11Z" class="svgShape color807dfb-68 selectable"></path><path fill="#9f9cff" d="M573.41,330.09h-.89a31.45,31.45,0,0,0,.06-5.57l-.28-4.39a26.79,26.79,0,0,1,.06-5.67,4.13,4.13,0,0,1,1.36-2.5,3.84,3.84,0,0,1,2.59-.94,2.72,2.72,0,0,1,2.24,1,2.86,2.86,0,0,1,.53,2.43,33.85,33.85,0,0,1-2,5.73l-1.84,4.39A42.53,42.53,0,0,0,573.41,330.09Zm-.93,2.88a2.63,2.63,0,0,1,2.14,1,2.73,2.73,0,0,1,.55,2.33,3.87,3.87,0,0,1-1.37,2.31,3.76,3.76,0,0,1-2.48.95,2.62,2.62,0,0,1-2.13-.95,2.74,2.74,0,0,1-.56-2.31,3.88,3.88,0,0,1,1.36-2.32A3.71,3.71,0,0,1,572.48,333Z" class="svgShape color9f9cff-69 selectable"></path><path fill="#f8d8d0" d="M600.07,360.24c-8.44-5.72-9.28-12.41-8.42-14.71,1.63-4.31,7.16-8.66,10.68-5.62s5.72,10.18,6.72,9.68-1.49-6.57,2-7.14c1.82-.3,3.77,10.65,3.09,14S605.82,364.15,600.07,360.24Z" class="svgShape colorf8d8d0-70 selectable"></path></g><g><path fill="#e9edf7" d="M162.71,533l-11.21,2.27a2.52,2.52,0,0,0-1.88,1.66L146,547.75a2.5,2.5,0,0,0,.49,2.46l7.58,8.57a2.54,2.54,0,0,0,2.38.8l11.21-2.28a2.52,2.52,0,0,0,1.88-1.66l3.63-10.85a2.49,2.49,0,0,0-.49-2.45l-7.58-8.58A2.51,2.51,0,0,0,162.71,533Z" class="svgShape colore9edf7-72 selectable"></path><path fill="#807dfb" d="M390.62,81.56l4.81,17.14a2.51,2.51,0,0,0,4.21,1.07L412.08,87a2.5,2.5,0,0,0-1.18-4.17l-17.25-4.41A2.51,2.51,0,0,0,390.62,81.56Z" class="svgShape color807dfb-73 selectable"></path><path fill="#fcba06" d="M677.46,589,665.3,602a2.5,2.5,0,0,0,1.26,4.15l17.34,4a2.5,2.5,0,0,0,3-3.17l-5.18-17A2.5,2.5,0,0,0,677.46,589Z" class="svgShape colorfcba06-74 selectable"></path></g></svg></g></svg>