<svg id="SvgjsSvg1001" xmlns="http://www.w3.org/2000/svg" version="1.1" xmlns:xlink="http://www.w3.org/1999/xlink" xmlns:svgjs="http://svgjs.com/svgjs" viewBox="36 49.21 288 261.58"><defs id="SvgjsDefs1002"></defs><g id="SvgjsG1008"><svg xmlns="http://www.w3.org/2000/svg" enable-background="new 0 0 2500 2500" viewBox="0 0 2500 2500" width="360" height="360"><polygon fill="#030047" points="1910.39 2153.61 1910.39 1941.65 1474.02 1941.65 1462.08 2153.61" class="color030047 svgShape"></polygon><rect width="1732.95" height="7.03" x="415.97" y="2151.24" fill="#030047" class="color030047 svgShape"></rect><path fill="#605efd" d="M731.73,1161.47l27.37-83.34l-43.44-14.26c2.93-26.48,0.71-52.8-5.92-77.74l40.82-20.67l-39.58-78.29 									l-40.82,20.67c-16.14-20.16-36.03-37.51-59.09-50.85l14.26-43.44l-83.39-27.38l-14.26,43.44 									c-26.48-2.93-52.78-0.75-77.74,5.92l-20.62-40.85l-78.3,39.58l20.62,40.85c-20.12,16.16-37.51,36.03-50.85,59.09 									l-43.44-14.26L250,1003.27l43.44,14.26c-2.94,26.53-0.72,52.84,5.92,77.74l-40.82,20.67l39.58,78.3l40.82-20.67 									c16.15,20.16,36.03,37.51,59.09,50.85l-14.28,43.48l83.39,27.38l14.28-43.48c26.48,2.93,52.78,0.75,77.74-5.92l20.62,40.85 									l78.3-39.58l-20.62-40.85c20.11-16.12,37.49-35.99,50.85-59.09L731.73,1161.47z M479.72,1143.97 									c-63.76-15.49-98.35-83.86-73.05-144.44c19.9-47.65,72.55-74.27,122.73-62.04c63.79,15.54,98.34,83.93,73.01,144.46 									C582.49,1129.55,529.88,1156.15,479.72,1143.97z" class="color605efd svgShape"></path><path fill="#e6f3fc" d="M1275.45,739.62h-679.4c-59.41,0-107.57,48.16-107.57,107.57v1307.56h894.55V847.19 								C1383.02,787.78,1334.86,739.62,1275.45,739.62z" class="colore6f3fc svgShape"></path><path fill="#030047" d="M1383.02,2158.27H488.48c-1.94,0-3.51-1.57-3.51-3.51V847.19c0-61.25,49.83-111.08,111.08-111.08 									h679.41c61.25,0,111.08,49.83,111.08,111.08v1307.56C1386.54,2156.7,1384.96,2158.27,1383.02,2158.27z M491.99,2151.24 									h887.52V847.19c0-57.38-46.68-104.06-104.06-104.06H596.05c-57.37,0-104.06,46.68-104.06,104.06V2151.24z" class="color030047 svgShape"></path><path fill="#ffffff" d="M1279.36,791.92H592.14c-28.37,0-51.37,23-51.37,51.37v1311.47h789.96V843.28 								C1330.73,814.91,1307.73,791.92,1279.36,791.92z" class="colorfff svgShape"></path><path fill="#030047" d="M1330.73,2158.27H540.77c-1.94,0-3.51-1.57-3.51-3.51V843.28c0-30.26,24.62-54.88,54.88-54.88h687.23 								c30.26,0,54.88,24.62,54.88,54.88v1311.47C1334.24,2156.7,1332.67,2158.27,1330.73,2158.27z M544.28,2151.24h782.93V843.28 								c0-26.39-21.47-47.85-47.85-47.85H592.14c-26.39,0-47.86,21.47-47.86,47.85V2151.24z" class="color030047 svgShape"></path><circle cx="935.75" cy="861.7" r="32.64" fill="#030047" class="color030047 svgShape"></circle><path fill="#030047" d="M764.48 1711.38c-.7 0-1.46-.12-2.3-.37-8.36-2.37-16.42-3.56-24.18-3.56-4.06 0-8.48.37-13.28 1.11-4.8.74-9.97 1.88-15.51 3.41.45 3.21.67 5.79.67 7.71 0 6.87-.42 16.32-1.26 28.33l32.49-3.12c9.54-.99 15.4-1.48 17.58-1.48s4.01.69 5.49 2.08c1.48 1.39 2.23 3.24 2.23 5.56 0 4.5-2.28 7.02-6.82 7.57l-17.66 1.56-34.27 3.12c-.2 3.51-.36 6.84-.48 9.98-.12 3.14-.18 6.07-.18 8.79 0 10.93.79 17.36 2.37 19.29 1.18 1.39 5.07 2.08 11.65 2.08 3.06 0 7.67-.09 13.83-.26 6.16-.17 10.79-.26 13.91-.26.99 0 2.45-.16 4.38-.48 1.93-.32 3.36-.48 4.3-.48 5.24 0 7.86 2.57 7.86 7.71 0 4.15-2.1 6.65-6.3 7.49-4.65.94-14.71 1.41-30.19 1.41-15.33 0-25.17-2.03-29.52-6.08-4.75-4.4-7.12-14.54-7.12-30.41 0-3.16.08-6.63.22-10.38.15-3.76.35-7.81.59-12.16-.54-1.14-.82-2.35-.82-3.63 0-1.68.47-3.19 1.41-4.52.99-14.29 1.48-24.85 1.48-31.67 0-1.83-.25-4.51-.74-8.05-.5-3.53-.74-6.22-.74-8.05 0-5.88 2.47-8.83 7.41-8.83 2.08 0 3.86.72 5.34 2.15 5.93-1.58 11.54-2.77 16.8-3.56 5.26-.79 10.22-1.19 14.87-1.19 12.02 0 21.61 1.43 28.78 4.3 3.31 1.34 4.97 3.71 4.97 7.12 0 1.98-.64 3.73-1.93 5.27C768.39 1710.54 766.61 1711.38 764.48 1711.38zM860.17 1812.04c-1.88 0-3.63-.79-5.26-2.37-16.37-16.17-34.56-27.05-54.59-32.64l.59 14.54.37 14.61c0 2.18-.7 3.99-2.11 5.45s-3.18 2.19-5.31 2.19c-2.13 0-3.89-.73-5.3-2.19s-2.11-3.28-2.11-5.45c0-3.91-.19-9.73-.56-17.47-.37-7.74-.56-13.56-.56-17.47 0-4.55.49-11.32 1.49-20.32.99-9 1.48-15.75 1.48-20.25 0-2.52-.23-6.26-.7-11.2-.47-4.94-.7-8.68-.7-11.2 0-2.82.79-5.29 2.37-7.42 1.88-2.62 4.47-3.81 7.79-3.56l17.87 1.41c6.77.84 12.49 2.5 17.13 4.97 20.03 10.63 30.04 23.61 30.04 38.94 0 7.52-3.41 14.17-10.24 19.95-5.49 4.65-12.34 8.18-20.55 10.61 15.38 8.26 26.88 16.96 34.49 26.11 1.29 1.58 1.93 3.26 1.93 5.04 0 2.08-.75 3.88-2.26 5.41C863.96 1811.27 862.2 1812.04 860.17 1812.04zM812.92 1713.98l-10.98-.89.74 8.98c.35 3.66.52 6.65.52 8.98 0 3.96-.32 8.88-.97 14.76l-1.56 14.76c.7 0 1.77.03 3.23.07 1.46.05 2.56.07 3.3.07 12.61 0 22.06-1.68 28.34-5.04 2.77-1.53 5.34-3.53 7.72-6.01 2.62-2.77 3.93-5.12 3.93-7.05 0-6.87-3.91-13.28-11.72-19.21C828.29 1717.96 820.78 1714.82 812.92 1713.98zM955.63 1812.04c-1.88 0-3.63-.79-5.26-2.37-16.37-16.17-34.56-27.05-54.59-32.64l.59 14.54.37 14.61c0 2.18-.7 3.99-2.11 5.45s-3.18 2.19-5.31 2.19-3.89-.73-5.3-2.19-2.11-3.28-2.11-5.45c0-3.91-.19-9.73-.56-17.47-.37-7.74-.56-13.56-.56-17.47 0-4.55.49-11.32 1.49-20.32.99-9 1.48-15.75 1.48-20.25 0-2.52-.23-6.26-.7-11.2-.47-4.94-.7-8.68-.7-11.2 0-2.82.79-5.29 2.37-7.42 1.88-2.62 4.47-3.81 7.79-3.56l17.87 1.41c6.77.84 12.49 2.5 17.13 4.97 20.03 10.63 30.04 23.61 30.04 38.94 0 7.52-3.41 14.17-10.24 19.95-5.49 4.65-12.34 8.18-20.55 10.61 15.38 8.26 26.88 16.96 34.49 26.11 1.29 1.58 1.93 3.26 1.93 5.04 0 2.08-.75 3.88-2.26 5.41C959.42 1811.27 957.66 1812.04 955.63 1812.04zM908.38 1713.98l-10.98-.89.74 8.98c.35 3.66.52 6.65.52 8.98 0 3.96-.32 8.88-.97 14.76l-1.56 14.76c.7 0 1.77.03 3.23.07 1.46.05 2.56.07 3.3.07 12.61 0 22.06-1.68 28.34-5.04 2.77-1.53 5.34-3.53 7.72-6.01 2.62-2.77 3.93-5.12 3.93-7.05 0-6.87-3.91-13.28-11.72-19.21C923.76 1717.96 916.24 1714.82 908.38 1713.98zM1027.06 1815.75c-13.95 0-25.76-4.18-35.46-12.54-10.29-8.9-15.43-20.37-15.43-34.42 0-17.11 5.07-32.66 15.21-46.66 11.32-15.53 25.44-23.29 42.35-23.29 16.26 0 28.36 3.66 36.27 10.98 8.26 7.62 12.39 19.63 12.39 36.05 0 17.11-4.65 32.54-13.95 46.29C1057.77 1807.88 1043.97 1815.75 1027.06 1815.75zM1033.73 1714.05c-12.12 0-22.38 6.03-30.78 18.1-7.77 11.08-11.65 23.29-11.65 36.64 0 9.54 3.54 17.31 10.61 23.29 6.78 5.64 15.16 8.46 25.15 8.46 12.02 0 21.93-6.06 29.74-18.17 6.97-10.83 10.46-22.99 10.46-36.49 0-11.82-2.65-20.13-7.94-24.92C1054.28 1716.35 1045.75 1714.05 1033.73 1714.05zM1172.36 1812.04c-1.88 0-3.63-.79-5.26-2.37-16.37-16.17-34.56-27.05-54.59-32.64l.59 14.54.37 14.61c0 2.18-.7 3.99-2.11 5.45-1.41 1.46-3.18 2.19-5.31 2.19s-3.89-.73-5.3-2.19c-1.41-1.46-2.11-3.28-2.11-5.45 0-3.91-.19-9.73-.56-17.47-.37-7.74-.56-13.56-.56-17.47 0-4.55.49-11.32 1.49-20.32.99-9 1.48-15.75 1.48-20.25 0-2.52-.23-6.26-.7-11.2-.47-4.94-.7-8.68-.7-11.2 0-2.82.79-5.29 2.37-7.42 1.88-2.62 4.47-3.81 7.79-3.56l17.87 1.41c6.77.84 12.49 2.5 17.13 4.97 20.03 10.63 30.04 23.61 30.04 38.94 0 7.52-3.41 14.17-10.24 19.95-5.49 4.65-12.34 8.18-20.55 10.61 15.38 8.26 26.88 16.96 34.49 26.11 1.29 1.58 1.93 3.26 1.93 5.04 0 2.08-.75 3.88-2.26 5.41C1176.16 1811.27 1174.4 1812.04 1172.36 1812.04zM1125.12 1713.98l-10.98-.89.74 8.98c.35 3.66.52 6.65.52 8.98 0 3.96-.32 8.88-.97 14.76l-1.56 14.76c.7 0 1.77.03 3.23.07 1.46.05 2.56.07 3.3.07 12.61 0 22.06-1.68 28.34-5.04 2.77-1.53 5.34-3.53 7.72-6.01 2.62-2.77 3.93-5.12 3.93-7.05 0-6.87-3.91-13.28-11.72-19.21C1140.49 1717.96 1132.98 1714.82 1125.12 1713.98z" class="color030047 svgShape"></path><path fill="#605efd" d="M1566.34,1337.35l-104.66,13.33c-18.77,2.95-36.51,10.55-51.6,22.11l-78.18,47.4l106.25,193.54 								l163.2-101.37L1566.34,1337.35z" class="color605efd svgShape"></path><path fill="#030047" d="M1438.16,1617.24c-0.3,0-0.6-0.04-0.89-0.11c-0.93-0.24-1.72-0.86-2.19-1.71l-106.25-193.54 								c-0.91-1.65-0.35-3.72,1.26-4.69l78.18-47.4c1.66-1.01,3.82-0.47,4.83,1.18c1.01,1.66,0.48,3.82-1.18,4.83l-75.3,45.65 								l102.85,187.34l160.06-99.42c1.65-1.03,3.81-0.52,4.83,1.13c1.02,1.65,0.52,3.81-1.13,4.84l-163.21,101.37 								C1439.45,1617.06,1438.81,1617.24,1438.16,1617.24z" class="color030047 svgShape"></path><path fill="#605efd" d="M1907.01,1368.82c0,0-214.56-34.19-216.23-34.75c-0.95-0.32-58.47,1.32-124.45,3.29 								c-51.47,1.53-92.4,43.7-92.4,95.19l-19.76,548.55h465.85L1907.01,1368.82z" class="color605efd svgShape"></path><path fill="#ffffff" d="M1695.54,1378.37l31.15-31.71l-16.72-162.68l-133.25,27.77l-4.95,129.67l10.05,19.59 								C1603.88,1404.08,1661.63,1412.88,1695.54,1378.37z" class="colorfff svgShape"></path><path fill="#030047" d="M1645.24,1403.14c-3.81,0-7.67-0.29-11.53-0.88c-23.93-3.65-43.98-18.1-55.02-39.63l-10.04-19.6 								c-0.28-0.54-0.41-1.13-0.38-1.74l4.95-129.67c0.06-1.61,1.21-2.98,2.79-3.3l133.25-27.77c0.98-0.2,1.99,0.02,2.79,0.6 								c0.8,0.59,1.32,1.49,1.42,2.48l16.72,162.68c0.11,1.04-0.26,2.07-0.99,2.82l-31.15,31.71 								C1683.82,1395.31,1665.04,1403.14,1645.24,1403.14z M1575.31,1340.64l9.62,18.78c10,19.5,28.17,32.59,49.83,35.89 								c21.65,3.3,42.9-3.76,58.27-19.4l29.99-30.53l-16.15-157.16l-126.74,26.41L1575.31,1340.64z" class="color030047 svgShape"></path><path fill="#ffffff" d="M1979.37,1638.68c2.51,4.31,79.84,64.16,79.84,64.16l-144.05,21.31l6.23,125.47l240.41-44.43 								c41.29-7.63,73.88-39.46,82.47-80.57v0c7.29-34.86-3.87-71.01-29.52-95.71l-108.02-103.98L1979.37,1638.68z" class="colorfff svgShape"></path><path fill="#030047" d="M1921.38,1853.13c-0.79,0-1.56-0.26-2.18-0.76c-0.8-0.63-1.28-1.57-1.33-2.58l-6.22-125.47 								c-0.09-1.81,1.21-3.38,3-3.65l135.9-20.11c-25.72-19.96-71.85-56.07-74.21-60.12c-0.84-1.44-0.55-3.28,0.69-4.39 								l127.34-113.75c1.37-1.22,3.45-1.19,4.78,0.09l108.03,103.98c26.69,25.7,38.1,62.69,30.53,98.96 								c-8.92,42.68-42.4,75.38-85.27,83.3l-240.41,44.43C1921.81,1853.12,1921.59,1853.13,1921.38,1853.13z M1918.83,1727.16 								l5.87,118.28l236.46-43.7c40.06-7.4,71.33-37.95,79.67-77.83c7.08-33.89-3.58-68.45-28.52-92.46l-105.67-101.72 								l-122.16,109.12c10.13,9.07,50.86,41.06,76.9,61.22c1.11,0.86,1.61,2.31,1.25,3.67c-0.36,1.36-1.49,2.38-2.89,2.59 								L1918.83,1727.16z M1979.37,1638.68h0.05H1979.37z" class="color030047 svgShape"></path><path fill="#ffffff" d="M1849.07,1766.77c0,0-16.76-5.39-18.92-17.84s70.16-51.84,101.52-25.5 								c31.37,26.34,31.85,135.29,0,149.17c-31.85,13.89-78.54-1.44-77.58-17.24c0.55-9.09,14.61-14.85,14.61-14.85 								s-30.9-3.39-32.09-19.63c-0.96-13.17,19.87-15.56,19.87-15.56s-23.23-6.7-25.38-19.87 								C1828.96,1772.28,1849.07,1766.77,1849.07,1766.77z" class="colorfff svgShape"></path><path fill="#030047" d="M1903.29,1881.5c-16.87,0-33.47-4.6-43.47-11.59c-8.03-5.61-9.45-11.12-9.23-14.76 								c0.34-5.58,4.24-9.93,8.22-12.95c-10.12-2.58-24.78-8.47-25.69-21.06c-0.62-8.45,5.44-13.62,12.22-16.5 								c-7.36-3.64-16.24-9.78-17.69-18.63c-1.63-9.92,6.17-16.11,12.62-19.46c-5.5-3.21-12.14-8.71-13.58-17.02 								c-1.38-7.98,12.24-17.12,20.49-21.86c27.16-15.62,65.91-24.45,86.76-6.93c21.39,17.96,28.68,70.17,23.18,108.25 								c-3.62,25.02-12.15,41.66-24.03,46.84C1924.02,1879.78,1913.61,1881.5,1903.29,1881.5z M1903.48,1718.11 								c-14.92,0-31.61,5.12-44.79,11.44c-17.96,8.61-25.12,16.84-25.07,18.82c1.76,10.14,16.38,15.01,16.53,15.06 								c1.48,0.48,2.46,1.87,2.43,3.42c-0.04,1.55-1.08,2.9-2.58,3.31c-0.17,0.05-17.04,4.84-15.42,14.72 								c1.47,8.98,17.02,15.36,22.89,17.07c1.6,0.47,2.66,2,2.52,3.66c-0.14,1.67-1.43,3-3.09,3.2 								c-0.17,0.02-17.48,2.17-16.78,11.82c0.79,10.9,21.18,15.53,28.97,16.4c1.6,0.18,2.87,1.41,3.09,3 								c0.22,1.59-0.66,3.13-2.14,3.74c-3.12,1.29-12.1,6.22-12.44,11.81c-0.16,2.61,2.06,5.65,6.24,8.57 								c14.25,9.96,45.04,14.56,66.43,5.23c9.43-4.11,16.68-19.2,19.89-41.4c5.26-36.37-1.82-85.98-20.74-101.86 								C1922.6,1720.4,1913.43,1718.11,1903.48,1718.11z" class="color030047 svgShape"></path><line x1="1849.07" x2="1899.38" y1="1766.77" y2="1764.8" fill="#fff"></line><path fill="#030047" d="M1849.06,1770.29c-1.88,0-3.43-1.48-3.5-3.38c-0.08-1.94,1.43-3.57,3.37-3.65l50.31-1.97 								c1.82-0.06,3.57,1.43,3.65,3.37c0.08,1.94-1.43,3.57-3.37,3.65l-50.31,1.97C1849.16,1770.29,1849.12,1770.29,1849.06,1770.29 								z" class="color030047 svgShape"></path><path fill="#605efd" d="M1907.01,1368.82l15.81,2.64c38.3,6.38,73.66,24.58,101.12,52.04l104.08,104.08l-144.39,141.03 								l-168.57-147.5L1907.01,1368.82z" class="color605efd svgShape"></path><path fill="#030047" d="M1983.64 1672.11c-.8 0-1.61-.28-2.27-.83l-149.69-126.87c-1.48-1.25-1.66-3.47-.41-4.95 1.26-1.48 3.48-1.66 4.95-.41l147.25 124.8 139.55-136.32-46.19-46.2c-1.37-1.37-1.37-3.6 0-4.97 1.37-1.37 3.59-1.37 4.97 0l48.71 48.71c.66.66 1.03 1.57 1.03 2.5 0 .94-.39 1.84-1.06 2.49l-144.38 141.03C1985.41 1671.78 1984.52 1672.11 1983.64 1672.11zM1899.38 1808.84h-42.88c-1.94 0-3.51-1.57-3.51-3.51 0-1.94 1.57-3.51 3.51-3.51h42.88c1.94 0 3.51 1.57 3.51 3.51C1902.89 1807.26 1901.32 1808.84 1899.38 1808.84zM1899.38 1844.04h-30.67c-1.94 0-3.51-1.57-3.51-3.51 0-1.94 1.57-3.51 3.51-3.51h30.67c1.94 0 3.51 1.57 3.51 3.51C1902.89 1842.46 1901.32 1844.04 1899.38 1844.04z" class="color030047 svgShape"></path><path fill="#ffcc3d" d="M1155.83,1551.79H715.67c-72.37,0-115.66-80.54-75.72-140.9l220.08-332.64 								c35.9-54.26,115.55-54.26,151.45,0l220.08,332.64C1271.49,1471.25,1228.2,1551.79,1155.83,1551.79z" class="colorffcc3d svgShape"></path><path fill="#ffffff" d="M1155.83,1523.28H715.68c-23.32,0-43.83-12.26-54.87-32.8c-11.04-20.53-9.95-44.4,2.92-63.85 								l220.07-332.64c11.74-17.74,30.68-27.92,51.95-27.92c21.28,0,40.21,10.18,51.95,27.92l220.08,332.64 								c12.87,19.45,13.95,43.32,2.91,63.86C1199.65,1511.01,1179.14,1523.28,1155.83,1523.28z M935.75,1073.08 								c-18.88,0-35.67,9.03-46.09,24.77L669.59,1430.5c-11.42,17.26-12.39,38.43-2.59,56.65c9.79,18.22,27.99,29.1,48.68,29.1 								h440.15c20.69,0,38.89-10.88,48.68-29.1c9.8-18.22,8.83-39.4-2.59-56.65l-220.07-332.64 								C971.42,1082.11,954.62,1073.08,935.75,1073.08z" opacity=".4" class="colorfff svgShape"></path><path fill="#f4b414" d="M955.72 1411.13c0 17.16-13.91 31.06-31.06 31.06-17.16 0-31.06-13.91-31.06-31.06 0-17.11 13.91-31.02 31.06-31.02C941.81 1380.11 955.72 1394.01 955.72 1411.13zM962.3 1214c0 .87-.05 1.78-.09 2.65l-8.14 115.6c-1.1 15.42-13.91 27.4-29.42 27.4-15.46 0-28.32-11.99-29.42-27.4l-8.14-115.6c-1.51-21.77 15.74-40.3 37.56-40.3C945.61 1176.35 962.3 1193.41 962.3 1214z" class="colorf4b414 svgShape"></path><path fill="#ffffff" d="M966.81 1408.21c0 17.16-13.91 31.06-31.06 31.06-17.16 0-31.06-13.91-31.06-31.06 0-17.11 13.91-31.02 31.06-31.02C952.91 1377.19 966.81 1391.09 966.81 1408.21zM973.4 1211.08c0 .87-.05 1.78-.09 2.65l-8.14 115.6c-1.1 15.42-13.91 27.4-29.42 27.4-15.46 0-28.32-11.99-29.42-27.4l-8.14-115.6c-1.51-21.77 15.74-40.3 37.56-40.3C956.7 1173.43 973.4 1190.49 973.4 1211.08z" class="colorfff svgShape"></path><g><path fill="#ffffff" d="M1710.08,1203.73c48.05-79.68,11.48-186.13,11.48-186.13l-201.58-39.12 									c-2.86,3.54-79.08,78.2-49.31,191.97c30.07,114.89,114.12,140.39,203.51,84.79" class="colorfff svgShape"></path><path fill="#030047" d="M1587.72,1287.1c-14,0-27.4-2.5-40.02-7.53c-38.05-15.16-65.85-52.59-80.42-108.24 									c-26.65-101.82,30.86-174.33,49.12-194.12c0.43-0.47,0.72-0.78,0.86-0.95c0.82-0.99,2.15-1.48,3.39-1.23l201.58,39.12 									c1.23,0.24,2.25,1.12,2.65,2.31c0.37,1.08,36.55,108.92-11.79,189.08c-1.01,1.66-3.16,2.2-4.83,1.19 									c-1.66-1-2.2-3.16-1.19-4.82c43.15-71.55,16.31-166.64,11.78-181.26l-197.59-38.35c-22.76,24.79-72.12,91.98-47.18,187.25 									c13.98,53.4,40.33,89.19,76.22,103.49c35.32,14.08,77.53,6.89,122.04-20.79c1.66-1.03,3.82-0.52,4.84,1.13 									c1.02,1.65,0.52,3.81-1.13,4.84C1645.22,1277.4,1615.3,1287.1,1587.72,1287.1z" class="color030047 svgShape"></path><ellipse cx="1510.4" cy="1131.73" fill="#030047" rx="8.68" ry="12.94" transform="rotate(-6.586 1510.562 1131.618)" class="color030047 svgShape"></ellipse><path fill="#ffffff" d="M1494.91,1109.84c6.98-6.02,17.42-6.93,26.49-2.32" class="colorfff svgShape"></path><path fill="#030047" d="M1494.91 1113.36c-.98 0-1.97-.41-2.66-1.22-1.27-1.47-1.1-3.69.37-4.95 8.08-6.97 20-8.06 30.37-2.8 1.73.88 2.42 2.99 1.54 4.72-.88 1.73-2.99 2.42-4.72 1.54-7.81-3.97-16.69-3.25-22.6 1.85C1496.54 1113.08 1495.72 1113.36 1494.91 1113.36zM1673.9 912.38c25.68 16.08 15.77 60.31 15.77 60.31s37.34-18.73 71.08 20.1c33.74 38.82-18.34 123.24-18.34 123.24l-49.87-14.08c0 0 .73 8.47-14.17 1 0 0-49.05-47.99-27.33-75.77 0 0-189.89 101.3-219.01-29.06C1409.28 896.18 1631.72 885.97 1673.9 912.38z" class="color030047 svgShape"></path><ellipse cx="1591.75" cy="1130.69" fill="#030047" rx="8.68" ry="12.94" transform="rotate(-15.605 1591.646 1130.652)" class="color030047 svgShape"></ellipse><path fill="#ffffff" d="M1575.6,1109.29c6.79-6.23,17.2-7.46,26.4-3.13" class="colorfff svgShape"></path><path fill="#030047" d="M1575.6,1112.8c-0.95,0-1.9-0.38-2.59-1.14c-1.31-1.43-1.22-3.65,0.21-4.96 									c7.87-7.21,19.75-8.67,30.27-3.72c1.76,0.83,2.51,2.92,1.68,4.67c-0.82,1.75-2.91,2.51-4.67,1.68 									c-7.94-3.73-16.78-2.73-22.54,2.54C1577.3,1112.5,1576.45,1112.8,1575.6,1112.8z" class="color030047 svgShape"></path><path fill="#ffffff" d="M1690.66,1103.37c0,0,35.35-43.82,58.36-38.35c23.01,5.46,23.02,84.51-2.52,94.65 									c-25.54,10.15-47.85,1.99-47.85,1.99" class="colorfff svgShape"></path><path fill="#030047" d="M1719.58,1168.29c-12.77,0-21.55-3.12-22.14-3.34c-1.82-0.67-2.75-2.68-2.09-4.5 									c0.66-1.82,2.68-2.76,4.5-2.1c0.22,0.08,21.45,7.54,45.36-1.95c12.77-5.08,18.67-32.16,16.98-55.41 									c-1.31-18.07-6.8-30.85-13.97-32.56c-17.15-4.07-45.37,25.44-54.82,37.14c-1.22,1.51-3.44,1.74-4.94,0.53 									c-1.51-1.22-1.75-3.43-0.53-4.94c1.5-1.86,37.09-45.48,61.91-39.57c10.54,2.5,17.77,17.04,19.36,38.88 									c1.89,26.06-4.85,55.88-21.39,62.45C1737.49,1167.03,1727.72,1168.29,1719.58,1168.29z" class="color030047 svgShape"></path><path fill="#030047" d="M1739.33,1126.67c-0.37,0-0.75-0.06-1.12-0.18c-1.84-0.62-2.83-2.61-2.21-4.45 								c1.53-4.57,2.12-9.52,1.72-14.32c-0.23-2.66-0.88-4.43-1.9-5.12c-0.71-0.48-1.84-0.57-2.95-0.23 								c-1.18,0.36-2.42,1.16-3.77,2.45c-2.01,1.93-3.65,4.31-4.71,6.88c-0.74,1.79-2.8,2.64-4.59,1.9c-1.79-0.74-2.64-2.8-1.9-4.59 								c1.44-3.46,3.63-6.67,6.34-9.26c2.17-2.07,4.32-3.41,6.59-4.09c3.12-0.95,6.47-0.52,8.92,1.15 								c2.91,1.98,4.53,5.36,4.95,10.34c0.48,5.74-0.22,11.67-2.06,17.14C1742.17,1125.75,1740.8,1126.67,1739.33,1126.67z" class="color030047 svgShape"></path><path fill="#ffffff" d="M1547.18,1140.83c-1.39,10.23-2.78,20.45-4.17,30.68c-0.84,6.17-1.65,12.57,0.64,18.17 								c2.29,5.6,8.62,10.16,15.83,9.07" class="colorfff svgShape"></path><path fill="#030047" d="M1557.27,1202.43c-8.03,0-14.44-5.44-16.88-11.42c-2.68-6.57-1.72-13.69-0.86-19.97l4.17-30.68 								c0.26-1.92,2.05-3.26,3.95-3.01c1.93,0.26,3.27,2.03,3.01,3.95l-4.17,30.68c-0.73,5.41-1.56,11.54,0.41,16.37 								c1.63,3.99,6.4,7.78,12.05,6.92c1.92-0.29,3.71,1.03,4,2.95c0.29,1.92-1.03,3.71-2.95,4 								C1559.07,1202.36,1558.16,1202.43,1557.27,1202.43z" class="color030047 svgShape"></path><g><path fill="#030047" d="M1584.04,1230.19c-0.06,0-0.12,0-0.18,0c-1.93-0.1-3.43-1.74-3.33-3.68 								c0.49-9.95,4.99-19.52,12.35-26.24c7.36-6.72,17.33-10.34,27.25-9.92c1.94,0.08,3.44,1.72,3.36,3.66 								c-0.08,1.94-1.74,3.45-3.65,3.36c-8.11-0.33-16.22,2.61-22.22,8.09c-6,5.48-9.67,13.28-10.07,21.39 								C1587.45,1228.73,1585.89,1230.19,1584.04,1230.19z" class="color030047 svgShape"></path></g></g><g><path fill="#ffffff" d="M1662.61,1014.68c0,0,9.3,19.81-10.03,25.45c0,0,13.72,17.98-13.32,27.77 								c-27,9.74-136.73,88.34-136.73,88.34l-119.52,357.41l37.55,67.47l-43.84,22.17c-58.74,29.68-130.36,10.92-167.01-43.72 								c-14.7-21.96-22.08-47.29-22.08-72.63c0-24.11,6.66-48.23,20.1-69.5c77.17-122.24,225.8-358.26,225.8-358.26l47.34-79.81 								c2.15-8.08,10.68-12.75,18.63-10.15c2.96,0.97,5.4,2.8,7.19,5.2c1.75,2.35,2.76,5.24,2.84,8.32l0.53,23.46 								c0,0,46.52-24.03,96.05-22.53C1655.59,985.17,1677.71,997.55,1662.61,1014.68z" class="colorfff svgShape"></path><path fill="#030047" d="M1318.15,1620.77c-43.42,0-85.76-21.12-111.35-59.25c-14.84-22.18-22.68-47.97-22.68-74.58 								c0-25.32,7.14-50,20.64-71.38c77.17-122.23,225.79-358.26,225.79-358.26l47.05-79.34c1.36-4.58,4.52-8.49,8.74-10.78 								c4.41-2.4,9.47-2.87,14.24-1.31c3.56,1.17,6.64,3.39,8.91,6.43c2.22,3,3.44,6.56,3.54,10.33l0.4,18.03 								c13.44-6.16,51.88-21.76,92.77-20.52c25.49,0.77,57.2,4.76,63.54,19.38c1.51,3.5,2.1,8.98-3.11,15.79 								c1.25,3.58,3.11,11.06,0.08,17.77c-1.75,3.89-4.79,6.86-9.07,8.88c1.45,3.23,2.79,8.09,1.24,13.34 								c-2.02,6.85-8.21,12.2-18.43,15.89c-24.94,9-124.27,79.61-134.96,87.23l-118.66,354.86l36.8,66.12 								c0.47,0.84,0.57,1.82,0.29,2.74c-0.28,0.91-0.92,1.67-1.77,2.11l-43.84,22.17 								C1359.11,1616.13,1338.51,1620.77,1318.15,1620.77z M1494.98,972c-1.82,0-3.62,0.46-5.27,1.36 								c-2.72,1.48-4.66,3.93-5.45,6.91c-0.08,0.31-0.21,0.61-0.37,0.89l-47.34,79.81c-0.05,0.08-148.67,236.11-225.85,358.35 								c-12.79,20.25-19.55,43.64-19.55,67.63c0,25.22,7.43,49.66,21.49,70.67c35.6,53.06,105.47,71.36,162.51,42.54l40.57-20.52 								l-35.77-64.28c-0.48-0.86-0.58-1.89-0.26-2.82l119.52-357.41c0.23-0.7,0.68-1.31,1.29-1.74 								c4.5-3.22,110.44-78.99,137.58-88.79c7.96-2.88,12.69-6.66,14.06-11.22c1.68-5.62-2.31-11.07-2.36-11.13 								c-0.69-0.92-0.89-2.13-0.52-3.22c0.37-1.09,1.23-1.94,2.34-2.27c4.45-1.3,7.3-3.45,8.71-6.56 								c2.72-6.03-0.84-13.95-0.88-14.03c-0.59-1.27-0.38-2.77,0.54-3.82c3.41-3.87,4.53-7.24,3.32-10.03 								c-2.84-6.57-19.39-14-57.3-15.15c-48.15-1.45-93.88,21.91-94.34,22.14c-1.07,0.55-2.36,0.52-3.4-0.1 								c-1.04-0.62-1.69-1.73-1.72-2.94l-0.53-23.46c-0.06-2.31-0.81-4.49-2.15-6.31c-1.41-1.89-3.25-3.22-5.46-3.95 								C1497.28,972.18,1496.13,972,1494.98,972z" class="color030047 svgShape"></path><path fill="#ffffff" d="M1662.6,1014.68c-6.25-7.18-61.49-10.28-106.78,8.76" class="colorfff svgShape"></path><path fill="#030047" d="M1555.82,1026.95c-1.37,0-2.67-0.81-3.24-2.15c-0.75-1.79,0.09-3.85,1.88-4.6 								c45.37-19.07,102.87-16.93,110.79-7.82c1.27,1.46,1.11,3.65-0.34,4.93c-1.45,1.27-3.67,1.13-4.95-0.32 								c-4.39-4.94-57.12-9.5-102.77,9.69C1556.73,1026.86,1556.28,1026.95,1555.82,1026.95z" class="color030047 svgShape"></path><path fill="#ffffff" d="M1652.6,1040.13c-2.9-9.86-52.72-6.05-95.47,6.75" class="colorfff svgShape"></path><path fill="#030047" d="M1557.13,1050.4c-1.51,0-2.91-0.98-3.37-2.51c-0.55-1.86,0.5-3.82,2.36-4.37 								c35.02-10.49,81.76-16.72,95.5-9.27c2.29,1.24,3.75,2.88,4.34,4.89c0.54,1.86-0.52,3.81-2.38,4.36 								c-1.89,0.55-3.81-0.51-4.35-2.36c-2.79-5.24-44.07-4.98-91.09,9.11C1557.8,1050.35,1557.47,1050.4,1557.13,1050.4z" class="color030047 svgShape"></path><g><path fill="#ffffff" d="M1637.72,1068.5c-3.51-10.74-33.89-10.92-64.46,3.52" class="colorfff svgShape"></path><path fill="#030047" d="M1573.26,1075.53c-1.32,0-2.58-0.74-3.18-2.01c-0.83-1.75-0.08-3.85,1.67-4.68 								c23.17-10.95,48.49-14.65,61.58-9.01c5.05,2.18,6.98,5.32,7.72,7.58c0.6,1.84-0.41,3.83-2.25,4.43s-3.82-0.41-4.43-2.25 								c-0.52-1.6-2.37-2.68-3.82-3.31c-9.36-4.03-32.09-2.29-55.8,8.91C1574.28,1075.42,1573.76,1075.53,1573.26,1075.53z" class="color030047 svgShape"></path></g></g><g><line x1="1383.02" x2="1368.22" y1="1513.66" y2="1558.33" fill="#fff"></line><path fill="#030047" d="M1368.22,1561.85c-0.37,0-0.74-0.06-1.11-0.18c-1.84-0.61-2.84-2.6-2.23-4.44l14.81-44.68 							c0.61-1.84,2.58-2.84,4.44-2.23c1.84,0.61,2.84,2.6,2.23,4.44l-14.81,44.68C1371.06,1560.91,1369.69,1561.85,1368.22,1561.85z 							" class="color030047 svgShape"></path></g><g><line x1="1460.36" x2="1471.48" y1="1809.58" y2="1500.85" fill="#fff"></line><path fill="#030047" d="M1460.36,1813.09c-0.05,0-0.09,0-0.13,0c-1.94-0.07-3.45-1.7-3.38-3.64l11.12-308.73 							c0.06-1.94,1.74-3.44,3.64-3.38c1.94,0.07,3.45,1.7,3.38,3.64l-11.12,308.73C1463.8,1811.6,1462.24,1813.09,1460.36,1813.09z" class="color030047 svgShape"></path></g><g><path fill="#030047" d="M1604.82,717.87c-0.73,0-1.46-0.02-2.2-0.05l-366.76-16.78c-17.07-0.78-31.64-10.46-38.97-25.89 								c-7.34-15.43-5.64-32.84,4.53-46.57l198.9-268.46c9.1-12.28,23.68-19.14,38.92-18.33c15.27,0.81,29.02,9.16,36.77,22.33 								l167.86,285.24c8.59,14.61,8.51,31.99-0.24,46.51C1635.26,709.76,1620.87,717.87,1604.82,717.87z M1207.06,632.77 								c-8.6,11.61-10.03,26.32-3.83,39.37c6.2,13.05,18.52,21.23,32.95,21.89l366.76,16.78c14.26,0.65,27.28-6.28,34.67-18.55 								c7.4-12.27,7.47-26.97,0.2-39.32l-167.86-285.24c-6.56-11.14-18.18-18.2-31.09-18.88c-12.99-0.69-25.21,5.11-32.9,15.5 								L1207.06,632.77z" class="color030047 svgShape"></path><path fill="#030047" d="M1575.73,686.43l-312.97-14.2c-23.45-1.06-36.2-27.87-22.24-46.74l169.86-229.4 								c12.51-16.89,38.2-15.53,48.85,2.6l143.11,243.6C1614.13,662.35,1598.98,687.49,1575.73,686.43z" class="color030047 svgShape"></path><path fill="#ffffff" d="M1428.34 602.5c14.41 22.21-12.45 45.94-32.33 28.87C1381.67 609.41 1408.27 585.4 1428.34 602.5zM1449 488.5c-.05.57-.14 1.17-.23 1.73l-12.6 75.55c-1.69 10.08-10.82 17.77-20.9 17.59-10-.18-17.52-8.09-17.26-18.08l2.02-74.64c.39-14.01 12.62-26.1 26.72-26.32C1440.41 464.1 1450.29 475.06 1449 488.5z" class="colorfff svgShape"></path></g><g><path fill="#ffcc3d" d="M1995.22 1183.02l-21.57 21.57c-10.14 10.06-26.47 10.06-36.53 0l-21.57-21.57c-10.06-10.06-10.06-26.39 0-36.44l21.57-21.66c10.06-10.06 26.39-10.06 36.53 0l21.57 21.66C2005.28 1156.63 2005.28 1172.96 1995.22 1183.02zM1918.09 911.61l-13.73 13.72c-6.45 6.4-16.84 6.4-23.24 0l-13.73-13.72c-6.4-6.4-6.4-16.79 0-23.19l13.73-13.78c6.4-6.4 16.79-6.4 23.24 0l13.73 13.78C1924.49 894.82 1924.49 905.21 1918.09 911.61zM2076.54 1005.56l-12.18 12.18c-5.73 5.68-14.95 5.68-20.63 0l-12.18-12.18c-5.68-5.68-5.68-14.9 0-20.58l12.18-12.23c5.68-5.68 14.9-5.68 20.63 0l12.18 12.23C2082.22 990.66 2082.22 999.88 2076.54 1005.56z" class="colorffcc3d svgShape"></path></g><g><path fill="#ffffff" d="M1440.39,1532.43c-0.6,0-1.21-0.15-1.77-0.48c-7.77-4.52-11.58-14.73-8.67-23.24 				c1.12-3.27,2.99-5.97,4.79-8.58c0.87-1.26,1.74-2.51,2.5-3.83c1.65-2.85,2.81-6.77,1.13-9.24c-1.2-1.76-3.64-2.61-6.47-3.6 				c-2.07-0.72-4.21-1.47-6.21-2.7c-6.21-3.81-9.28-11.66-7.3-18.68c1.98-7.01,8.7-12.1,15.99-12.1l0,0c1.94,0,3.51,1.57,3.51,3.51 				c0,1.94-1.57,3.51-3.51,3.51l0,0c-4.07,0-8.12,3.07-9.23,6.98c-1.11,3.92,0.75,8.65,4.21,10.78c1.36,0.83,3.06,1.43,4.85,2.05 				c3.49,1.22,7.45,2.6,9.96,6.28c2.99,4.39,2.68,10.64-0.85,16.72c-0.86,1.48-1.83,2.89-2.81,4.3c-1.6,2.31-3.11,4.5-3.92,6.85 				c-1.83,5.36,0.66,12.05,5.56,14.9c1.67,0.98,2.24,3.13,1.27,4.8C1442.78,1531.8,1441.61,1532.43,1440.39,1532.43z" opacity=".4" class="colorfff svgShape"></path></g><g opacity=".4"><path fill="#ffffff" d="M1778.32,1528.13c-0.14,0-0.28-0.01-0.42-0.03c-8.93-1.07-16.48-8.92-17.2-17.88c-0.27-3.45,0.38-6.67,1-9.78 			c0.3-1.5,0.6-2.99,0.78-4.5c0.38-3.26-0.11-7.32-2.64-8.93c-1.81-1.14-4.38-0.95-7.36-0.74c-2.19,0.16-4.45,0.32-6.77-0.01 			c-7.21-1.03-13.15-7.02-14.11-14.24c-0.97-7.22,3.18-14.56,9.87-17.46c1.79-0.77,3.85,0.05,4.62,1.83 			c0.77,1.78-0.05,3.85-1.83,4.62c-3.74,1.62-6.24,6.04-5.7,10.07c0.54,4.04,4.12,7.65,8.15,8.22c1.57,0.23,3.37,0.09,5.26-0.04 			c3.68-0.27,7.87-0.58,11.63,1.8c4.49,2.84,6.68,8.71,5.86,15.68c-0.2,1.69-0.54,3.38-0.87,5.06c-0.55,2.76-1.07,5.37-0.88,7.85 			c0.45,5.65,5.4,10.79,11.02,11.47c1.93,0.23,3.3,1.98,3.07,3.9C1781.59,1526.82,1780.07,1528.13,1778.32,1528.13z" class="colorfff svgShape"></path></g><g opacity=".4"><path fill="#ffffff" d="M1768.89,1706.87c-1.24,0-2.45-0.66-3.08-1.82c-4.33-7.88-2.33-18.6,4.55-24.39 			c2.64-2.23,5.64-3.57,8.53-4.88c1.4-0.63,2.79-1.25,4.12-1.99c2.88-1.59,5.89-4.35,5.72-7.34c-0.12-2.14-1.77-4.12-3.68-6.42 			c-1.4-1.68-2.85-3.42-3.93-5.51c-3.36-6.47-1.93-14.78,3.38-19.77c5.31-4.99,13.7-5.88,19.94-2.12c1.66,1,2.2,3.16,1.2,4.82 			c-1,1.66-3.16,2.2-4.82,1.2c-3.49-2.1-8.54-1.56-11.51,1.23c-2.97,2.79-3.82,7.8-1.95,11.41c0.73,1.41,1.88,2.79,3.1,4.26 			c2.36,2.85,5.04,6.07,5.3,10.52c0.3,5.3-3.19,10.49-9.34,13.89c-1.5,0.82-3.06,1.53-4.63,2.24c-2.57,1.16-4.99,2.25-6.88,3.84 			c-4.34,3.65-5.65,10.67-2.92,15.64c0.93,1.7,0.31,3.84-1.39,4.77C1770.04,1706.73,1769.47,1706.87,1768.89,1706.87z" class="colorfff svgShape"></path></g><g opacity=".4"><path fill="#ffffff" d="M1647.67,1917.84c-3.8,0-7.9-1.7-11.63-4.94c-1.29-1.12-2.49-2.35-3.69-3.57c-1.97-2.02-3.83-3.92-5.98-5.15 			c-4.92-2.82-11.96-1.64-15.69,2.63c-1.28,1.46-3.49,1.61-4.96,0.33c-1.46-1.28-1.61-3.5-0.33-4.96c5.91-6.77,16.67-8.57,24.47-4.1 			c3,1.72,5.3,4.07,7.51,6.34c1.07,1.09,2.13,2.19,3.27,3.18c2.48,2.16,6.12,4.04,8.86,2.86c1.97-0.85,3.27-3.08,4.77-5.67 			c1.1-1.89,2.24-3.85,3.82-5.58c4.93-5.37,13.22-6.9,19.73-3.62c6.51,3.27,10.23,10.84,8.84,18c-0.37,1.91-2.25,3.15-4.12,2.78 			c-1.9-0.37-3.15-2.21-2.78-4.12c0.77-4-1.47-8.56-5.1-10.39c-3.64-1.83-8.64-0.91-11.39,2.09c-1.07,1.17-1.98,2.72-2.93,4.37 			c-1.86,3.2-3.97,6.83-8.06,8.59C1650.85,1917.53,1649.29,1917.84,1647.67,1917.84z" class="colorfff svgShape"></path></g><g opacity=".4"><path fill="#ffffff" d="M1592.1,1591.08c-1.33,0-2.6-0.76-3.19-2.04c-3.77-8.16-1.03-18.71,6.23-24.01c2.79-2.04,5.87-3.17,8.84-4.27 			c1.43-0.53,2.87-1.06,4.24-1.7c2.99-1.38,6.19-3.93,6.23-6.93c0.03-2.13-1.48-4.23-3.23-6.66c-1.28-1.78-2.61-3.62-3.54-5.78 			c-2.9-6.68-0.91-14.87,4.73-19.48c5.65-4.61,14.07-4.92,20.04-0.74c1.59,1.11,1.97,3.3,0.86,4.89c-1.11,1.59-3.31,1.97-4.89,0.86 			c-3.33-2.34-8.41-2.14-11.57,0.43c-3.15,2.57-4.35,7.51-2.73,11.25c0.64,1.46,1.69,2.92,2.8,4.47c2.16,3,4.61,6.4,4.56,10.85 			c-0.07,5.32-3.92,10.25-10.29,13.21c-1.55,0.72-3.16,1.32-4.77,1.91c-2.64,0.98-5.13,1.9-7.14,3.36c-4.58,3.34-6.37,10.25-4,15.4 			c0.81,1.76,0.05,3.85-1.72,4.66C1593.1,1590.98,1592.6,1591.08,1592.1,1591.08z" class="colorfff svgShape"></path></g><g opacity=".4"><path fill="#ffffff" d="M1552.38,1494.72c-0.14,0-0.28-0.01-0.42-0.03c-8.93-1.07-16.48-8.92-17.19-17.89 			c-0.27-3.44,0.37-6.66,0.99-9.77c0.3-1.5,0.6-3,0.78-4.51c0.38-3.27-0.11-7.33-2.64-8.93c-1.81-1.14-4.4-0.95-7.36-0.74 			c-2.19,0.16-4.45,0.32-6.77-0.01c-7.21-1.03-13.15-7.02-14.11-14.24c-0.97-7.22,3.18-14.56,9.87-17.45 			c1.79-0.77,3.85,0.05,4.62,1.83c0.77,1.78-0.05,3.85-1.83,4.62c-3.74,1.61-6.24,6.04-5.7,10.08c0.54,4.03,4.12,7.64,8.15,8.22 			c1.57,0.23,3.37,0.09,5.26-0.04c3.7-0.27,7.88-0.57,11.64,1.81c4.49,2.84,6.68,8.7,5.86,15.68c-0.2,1.7-0.53,3.38-0.87,5.07 			c-0.55,2.76-1.07,5.36-0.87,7.83c0.45,5.65,5.39,10.8,11.02,11.47c1.93,0.23,3.3,1.98,3.07,3.9 			C1555.65,1493.41,1554.13,1494.72,1552.38,1494.72z" class="colorfff svgShape"></path></g><g opacity=".4"><path fill="#ffffff" d="M1667.55,1726.38c-6.78,0-13.58-3.51-17.12-9.38c-1.79-2.96-2.65-6.13-3.49-9.2c-0.4-1.47-0.8-2.94-1.31-4.37 			c-1.12-3.09-3.38-6.5-6.36-6.8c-2.08-0.21-4.34,1.1-6.91,2.63c-1.88,1.12-3.83,2.28-6.06,3.02c-6.93,2.31-14.91-0.4-19-6.43 			c-4.09-6.02-3.66-14.45,1.02-20.02c1.25-1.49,3.46-1.68,4.95-0.43c1.49,1.25,1.68,3.46,0.43,4.95c-2.62,3.12-2.87,8.2-0.59,11.56 			c2.29,3.37,7.12,4.99,10.96,3.71c1.51-0.5,3.06-1.42,4.7-2.4c3.18-1.89,6.78-4.03,11.21-3.58c5.28,0.53,9.87,4.79,12.26,11.4 			c0.58,1.6,1.03,3.26,1.49,4.91c0.74,2.72,1.44,5.29,2.72,7.41c2.93,4.85,9.65,7.24,14.98,5.33c1.83-0.66,3.84,0.29,4.5,2.12 			c0.65,1.83-0.29,3.84-2.12,4.49C1671.79,1726.03,1669.67,1726.38,1667.55,1726.38z" class="colorfff svgShape"></path></g><g opacity=".4"><path fill="#ffffff" d="M1774.12,1891.62c-0.63,0-1.27-0.17-1.84-0.52c-7.66-4.72-11.21-15.02-8.08-23.46 			c1.2-3.24,3.14-5.89,5.01-8.45c0.9-1.23,1.81-2.47,2.6-3.76c1.72-2.8,2.98-6.69,1.36-9.21c-1.16-1.8-3.58-2.71-6.38-3.76 			c-2.05-0.77-4.17-1.57-6.14-2.85c-6.11-3.97-8.98-11.9-6.83-18.86c2.15-6.96,8.82-11.88,16.3-11.69c1.94,0.05,3.47,1.66,3.42,3.6 			c-0.05,1.94-1.51,3.49-3.6,3.42c-4.21-0.1-8.2,2.86-9.4,6.75c-1.21,3.89,0.53,8.67,3.94,10.88c1.34,0.87,3.02,1.5,4.8,2.17 			c3.46,1.31,7.38,2.79,9.79,6.53c2.88,4.46,2.41,10.7-1.27,16.69c-0.9,1.45-1.91,2.84-2.92,4.23c-1.66,2.27-3.23,4.42-4.09,6.75 			c-1.97,5.31,0.36,12.06,5.18,15.04c1.65,1.02,2.16,3.18,1.15,4.83C1776.45,1891.03,1775.3,1891.62,1774.12,1891.62z" class="colorfff svgShape"></path></g><g opacity=".4"><path fill="#ffffff" d="M1513.31,1836.02c-1.09,0-2.16-0.5-2.85-1.45c-5.27-7.28-4.62-18.16,1.48-24.76c2.35-2.54,5.15-4.25,7.85-5.9 			c1.31-0.8,2.62-1.59,3.84-2.48c2.66-1.93,5.31-5.05,4.77-7.99c-0.38-2.1-2.27-3.87-4.45-5.91c-1.6-1.5-3.25-3.05-4.58-4.98 			c-4.14-6-3.77-14.42,0.89-20.03c4.65-5.61,12.86-7.54,19.52-4.59c1.77,0.79,2.58,2.86,1.79,4.63c-0.79,1.77-2.87,2.57-4.63,1.79 			c-3.72-1.65-8.67-0.49-11.27,2.65c-2.6,3.13-2.82,8.21-0.51,11.56c0.91,1.31,2.22,2.54,3.6,3.84c2.7,2.53,5.76,5.39,6.56,9.77 			c0.96,5.22-1.86,10.81-7.54,14.94c-1.38,1-2.85,1.9-4.32,2.8c-2.4,1.47-4.67,2.85-6.35,4.67c-3.85,4.16-4.27,11.29-0.95,15.88 			c1.14,1.57,0.79,3.77-0.79,4.9C1514.74,1835.81,1514.02,1836.02,1513.31,1836.02z" class="colorfff svgShape"></path></g><g opacity=".4"><path fill="#ffffff" d="M1886.77,1514.37c-0.72,0-1.45-0.22-2.07-0.68c-7.26-5.31-9.99-15.86-6.22-24.02 			c1.45-3.14,3.59-5.62,5.65-8.03c1-1.16,1.99-2.32,2.89-3.55c1.93-2.66,3.5-6.44,2.08-9.08c-1.02-1.88-3.35-2.98-6.06-4.25 			c-1.98-0.93-4.03-1.9-5.9-3.33c-5.78-4.44-8.02-12.57-5.32-19.33c2.7-6.77,9.87-11.13,17.16-10.37c1.93,0.2,3.33,1.93,3.13,3.86 			c-0.2,1.93-1.96,3.33-3.86,3.13c-3.99-0.42-8.39,2.21-9.9,5.99c-1.5,3.78-0.16,8.68,3.07,11.16c1.26,0.97,2.89,1.73,4.61,2.54 			c3.35,1.57,7.14,3.36,9.25,7.28c2.52,4.68,1.56,10.86-2.58,16.54c-1.01,1.38-2.12,2.69-3.24,3.99c-1.83,2.13-3.56,4.15-4.61,6.4 			c-2.38,5.14-0.59,12.05,3.98,15.4c1.57,1.14,1.91,3.34,0.76,4.91C1888.93,1513.87,1887.86,1514.37,1886.77,1514.37z" class="colorfff svgShape"></path></g><g opacity=".4"><path fill="#ffffff" d="M1993.54,1563.92c-7.25,0-14.49-4.12-17.81-10.66c-1.56-3.08-2.19-6.3-2.8-9.41c-0.29-1.5-0.58-3-0.99-4.47 			c-0.89-3.17-2.89-6.73-5.84-7.25c-2.09-0.37-4.41,0.78-7.09,2.12c-1.96,0.98-3.99,1.99-6.27,2.57c-7.05,1.8-14.83-1.49-18.47-7.8 			c-3.65-6.31-2.6-14.68,2.48-19.9c1.35-1.39,3.57-1.42,4.97-0.07c1.39,1.35,1.42,3.58,0.06,4.97c-2.84,2.92-3.47,7.96-1.43,11.48 			c2.04,3.52,6.73,5.5,10.66,4.5c1.55-0.39,3.15-1.19,4.85-2.04c3.31-1.65,7.05-3.53,11.45-2.76c5.24,0.92,9.49,5.51,11.39,12.27 			c0.46,1.64,0.8,3.33,1.13,5.02c0.54,2.76,1.05,5.37,2.17,7.58c2.57,5.06,9.13,7.92,14.56,6.41c1.88-0.52,3.81,0.57,4.33,2.44 			c0.52,1.87-0.57,3.81-2.44,4.33C1996.84,1563.71,1995.19,1563.92,1993.54,1563.92z" class="colorfff svgShape"></path></g></svg></g></svg>