<svg id="SvgjsSvg1001" width="288" height="288" xmlns="http://www.w3.org/2000/svg" version="1.1" xmlns:xlink="http://www.w3.org/1999/xlink" xmlns:svgjs="http://svgjs.com/svgjs"><defs id="SvgjsDefs1002"></defs><g id="SvgjsG1008"><svg xmlns="http://www.w3.org/2000/svg" xmlns:xlink="http://www.w3.org/1999/xlink" viewBox="0 0 512 512" width="288" height="288"><defs><linearGradient id="a" x1="340.13" x2="101.81" y1="334.37" y2="96.05" gradientTransform="rotate(45 258.873 253.099)" gradientUnits="userSpaceOnUse"><stop offset="0" stop-color="#cc232c" class="stopColorcc232c svgShape"></stop><stop offset=".54" stop-color="#ef3739" class="stopColoref3739 svgShape"></stop><stop offset="1" stop-color="#ff8c8b" class="stopColorff8c8b svgShape"></stop></linearGradient><linearGradient id="e" x1="254.95" x2="93.39" y1="418.6" y2="257.04" gradientUnits="userSpaceOnUse"><stop offset="0" stop-color="#ef3739" class="stopColoref3739 svgShape"></stop><stop offset=".54" stop-color="#ef3739" class="stopColoref3739 svgShape"></stop><stop offset="1" stop-color="#ff8c8b" class="stopColorff8c8b svgShape"></stop></linearGradient><linearGradient id="f" x1="381.98" x2="330.48" y1="210.55" y2="159.05" xlink:href="#a"></linearGradient><linearGradient id="b" x1="287.79" x2="270.79" y1="154.12" y2="137.11" gradientUnits="userSpaceOnUse"><stop offset="0" stop-color="#34344f" class="stopColor34344f svgShape"></stop><stop offset=".26" stop-color="#3b3b56" class="stopColor3b3b56 svgShape"></stop><stop offset=".66" stop-color="#4f4f6c" class="stopColor4f4f6c svgShape"></stop><stop offset="1" stop-color="#666684" class="stopColor666684 svgShape"></stop></linearGradient><linearGradient id="g" x1="422.72" x2="405.71" y1="234.42" y2="217.41" gradientUnits="userSpaceOnUse"><stop offset="0" stop-color="#1eb4eb" class="stopColor1eb4eb svgShape"></stop><stop offset=".49" stop-color="#1eb4eb" class="stopColor1eb4eb svgShape"></stop><stop offset="1" stop-color="#92f4fe" class="stopColor92f4fe svgShape"></stop></linearGradient><linearGradient id="h" x1="345.77" x2="328.77" y1="272.47" y2="255.46" xlink:href="#b"></linearGradient><linearGradient id="i" x1="344.47" x2="314.96" y1="126.16" y2="96.66" gradientUnits="userSpaceOnUse"><stop offset="0" stop-color="#13b601" class="stopColor13b601 svgShape"></stop><stop offset=".57" stop-color="#13b601" class="stopColor13b601 svgShape"></stop><stop offset="1" stop-color="#cbf4b4" class="stopColorcbf4b4 svgShape"></stop></linearGradient><linearGradient id="c" x1="402.11" x2="372.61" y1="300.01" y2="270.5" gradientUnits="userSpaceOnUse"><stop offset="0" stop-color="#fe7838" class="stopColorfe7838 svgShape"></stop><stop offset=".54" stop-color="#fe7636" class="stopColorfe7636 svgShape"></stop><stop offset="1" stop-color="#ffad8a" class="stopColorffad8a svgShape"></stop></linearGradient><linearGradient id="j" x1="237.62" x2="205.49" y1="154.03" y2="121.9" xlink:href="#c"></linearGradient><linearGradient id="k" x1="297.1" x2="165.08" y1="367.61" y2="235.59" xlink:href="#c"></linearGradient><linearGradient id="l" x1="222.67" x2="136.33" y1="386.31" y2="299.97" xlink:href="#c"></linearGradient><linearGradient id="m" x1="164.15" x2="109.52" y1="408.95" y2="354.32" xlink:href="#c"></linearGradient><radialGradient id="d" cx="256" cy="-3438.15" r="200.83" fx="256" fy="-3438.15" gradientTransform="matrix(1 0 0 .45 0 1968.37)" gradientUnits="userSpaceOnUse"><stop offset="0" stop-color="#ef3739" stop-opacity=".6" class="stopColoref3739 svgShape"></stop><stop offset="1" stop-color="#ef3739" stop-opacity="0" class="stopColoref3739 svgShape"></stop></radialGradient></defs><path fill="#ffe5e5" d="M496.52,129.86c-13.43-49.48-64.89-100.93-114.37-114.37C351.82,7.92,311.17.13,256,0c-55.17.14-95.81,7.92-126.15,15.49C80.38,28.93,28.92,80.38,15.49,129.86,7.92,160.19.14,200.84,0,256c.14,55.17,7.92,95.81,15.49,126.15,13.44,49.48,64.89,100.93,114.37,114.37,30.34,7.57,70.98,15.35,126.15,15.49,55.16-.14,95.81-7.92,126.15-15.49,49.48-13.44,100.93-64.89,114.37-114.37,7.57-30.33,15.35-70.98,15.49-126.15-.14-55.17-7.92-95.81-15.49-126.15Z" class="colorffe5e5 svgShape"></path><path fill="url(#d)" d="M444.68,366.22c-10.54-17.58-50.91-35.87-89.72-40.64-23.8-2.69-55.68-5.46-98.96-5.5-43.28.05-75.17,2.81-98.96,5.5-38.81,4.78-79.18,23.06-89.72,40.64-5.94,10.78-12.04,25.22-12.15,44.83.11,19.6,6.21,34.05,12.15,44.83,10.54,17.58,50.91,35.87,89.72,40.64,23.8,2.69,55.69,5.46,98.96,5.5,43.28-.05,75.16-2.82,98.96-5.5,38.82-4.77,79.18-23.06,89.72-40.64,5.93-10.78,12.04-25.22,12.15-44.83-.11-19.6-6.22-34.05-12.15-44.83Z"></path><ellipse cx="258.88" cy="253.11" fill="url(#a)" rx="19.92" ry="114.91" transform="rotate(-45 258.869 253.103)"></ellipse><path fill="url(#e)" d="M244.79,267.2c-41.9-41.9-70.89-81.9-68.21-93.35h0c-18.23,87.28-58.33,155.44-89.69,229.82-5.27,12.35,9.08,26.71,21.44,21.44,74.38-31.36,142.53-71.46,229.81-89.7h0c-11.45,2.67-51.44-26.32-93.34-68.22Z"></path><path fill="url(#f)" d="M307.08,243.71c-4.74,0-8.79-3.61-9.26-8.42-.49-5.12,3.26-9.67,8.38-10.16,7.88-.76,15.33-3.48,21.75-7.72-3.54-1.75-6.76-4.06-9.59-6.89-.33-.33-.66-.67-.98-1.02-8.1-8.76-9.63-21.24-3.88-31.78,5.83-10.7,17.31-16.26,29.26-14.17,8.14,1.42,15.16,6.34,19.28,13.5,3.67,6.37,4.64,13.85,2.79,20.88,4.62-2.41,9.12-5.68,13.18-9.74,10.42-10.42,16.87-34.26,6.38-61.97-1.82-4.81.6-10.18,5.41-12,4.81-1.82,10.18.6,12,5.41,13.48,35.63,4.37,66.72-10.63,81.73-10.58,10.58-23.68,17.52-36.89,19.55-.89.14-1.78.25-2.66.34-11.02,12.52-26.58,20.78-43.63,22.41-.3.03-.6.04-.9.04ZM337.82,181.74c-3.88,0-6.62,2.41-7.97,4.89-.72,1.32-2.75,5.95,1.21,10.23.15.17.31.33.47.49,2.86,2.86,6.61,4.57,10.86,5.22,1.65-2.67,3.05-5.52,4.16-8.52,1.29-3.49.15-6.34-.65-7.72s-2.68-3.8-6.35-4.44c-.6-.1-1.17-.15-1.72-.15Z"></path><circle cx="279.29" cy="145.61" r="12.03" fill="url(#b)"></circle><circle cx="414.21" cy="225.92" r="12.03" fill="url(#g)"></circle><circle cx="337.27" cy="263.96" r="12.03" fill="url(#h)"></circle><path fill="url(#i)" d="M346.05,102.1h-7.03v-7.03c0-5.14-4.17-9.31-9.31-9.31s-9.31,4.17-9.31,9.31v7.03h-7.03c-5.14,0-9.31,4.17-9.31,9.31s4.17,9.31,9.31,9.31h7.03v7.03c0,5.14,4.17,9.31,9.31,9.31s9.31-4.17,9.31-9.31v-7.03h7.03c5.14,0,9.31-4.17,9.31-9.31s-4.17-9.31-9.31-9.31Z"></path><path fill="url(#c)" d="M403.69,275.94h-7.03v-7.03c0-5.14-4.17-9.31-9.31-9.31s-9.31,4.17-9.31,9.31v7.03h-7.03c-5.14,0-9.31,4.17-9.31,9.31s4.17,9.31,9.31,9.31h7.03v7.03c0,5.14,4.17,9.31,9.31,9.31s9.31-4.17,9.31-9.31v-7.03h7.03c5.14,0,9.31-4.17,9.31-9.31s-4.17-9.31-9.31-9.31Z"></path><path fill="url(#j)" d="M231.34,117.65c-3.48,2.44-6.94,4.88-10.35,7.33-4-1.21-8.02-2.46-11.92-3.8-2.85-.97-5.28,1.45-4.31,4.31,1.34,3.9,2.58,7.92,3.8,11.92-2.45,3.4-4.88,6.86-7.33,10.35-1.76,2.55-.42,5.94,2.47,5.74,3.97-.25,8.15-.48,12.38-.66,2.38,3.17,4.86,6.2,7.45,9.07,1.9,2.04,5.91,1.55,6.68-.91,1.1-3.44,2.21-7.12,3.37-10.98,3.85-1.15,7.54-2.27,10.98-3.37,2.46-.77,2.95-4.78.91-6.68-2.87-2.59-5.9-5.07-9.07-7.45.18-4.23.41-8.41.66-12.39.21-2.89-3.19-4.23-5.74-2.47Z"></path><path fill="url(#k)" d="M240.07,320.08c-58.17-25.18-87.9-61.11-83.66-75.81-3.37,9.39-6.93,18.6-10.63,27.69,3.86,6.32,9.12,12.81,15.72,19.35,17.44,17.25,42.71,33.54,71.17,45.86,15.21,6.58,30.49,11.63,44.95,14.96,15.8-5.37,32.11-10.17,49.13-14.16-21.53,3.15-54.19-3.82-86.68-17.89Z"></path><path fill="url(#l)" d="M187.01,352.47c-40.05-17.34-57.45-40.84-55.15-48.04-3.46,7.74-6.97,15.43-10.5,23.08,2.32,3.2,5.21,6.59,8.82,10.17,12.14,12.01,29.7,23.33,49.43,31.88,9.99,4.32,19.88,7.67,29.29,9.97,11.73-5.22,23.6-10.31,35.7-15.15-13.94,2.07-36.19-2.65-57.58-11.91Z"></path><path fill="url(#m)" d="M143.29,385.3c-11.19-4.85-21.36-11.5-27.91-18.25-5.8-5.99-6.98-10.5-6.95-11.63-3.23,6.99-6.45,13.98-9.62,21.01,8.51,10.24,22.34,19.59,37.07,25.97,4.34,1.88,8.66,3.47,12.91,4.77,10.65-4.9,21.27-9.86,31.94-14.8-7.05,1.12-21.45-.14-37.45-7.07Z"></path></svg></g></svg>